<svg xmlns="http://www.w3.org/2000/svg" width="193.2" height="59.759" viewBox="0 0 193.2 59.759">
  <g id="LOGO" transform="translate(-119.423 -47.244)">
    <g id="LOGO-2" data-name="LOGO" transform="translate(119.423 47.244)">
      <ellipse id="椭圆_43" data-name="椭圆 43" cx="6.9" cy="6.9" rx="6.9" ry="6.9" transform="translate(32.175 0)" fill="#fff"/>
      <path id="路径_258" data-name="路径 258" d="M531.993,400.591c8.727-1.87,10.36-5.917,22.873-10.914,13.914-5.556,21.364-2.891,23.674.587a14.116,14.116,0,0,1,1.266,11.256A31.049,31.049,0,0,1,553.542,422.1a31.435,31.435,0,0,0,11.163-4.018c8.019-4.6,12.642-11.107,10.328-14.538s-10.692-2.485-18.71,2.113-12.644,11.107-10.329,14.538c.873,1.292,2.607,1.963,4.858,2.052-.1,0-.191.011-.288.011a31.025,31.025,0,0,1-28.787-19.52C520.34,399.15,528,401.445,531.993,400.591Z" transform="translate(-520.683 -362.496)" fill="#fff" opacity="0.5"/>
      <path id="路径_259" data-name="路径 259" d="M524.15,390.264c2.31-3.478,9.76-6.143,23.673-.587,12.513,5,14.146,9.044,22.874,10.914,4,.855,11.652-1.441,10.215,2.144a31.023,31.023,0,0,1-28.787,19.52c-.146,0-.289-.016-.437-.018,2.2-.1,3.9-.773,4.756-2.045,2.316-3.431-2.309-9.941-10.328-14.538s-16.4-5.544-18.712-2.113,2.309,9.941,10.329,14.538a32.632,32.632,0,0,0,10.131,3.864,31.065,31.065,0,0,1-24.983-20.423A14.113,14.113,0,0,1,524.15,390.264Z" transform="translate(-522.249 -362.496)" fill="#fff" opacity="0.8"/>
    </g>
    <g id="组_41" data-name="组 41" transform="translate(188.626 76.669)">
      <path id="路径_326" data-name="路径 326" d="M380.968,290.748v-5.066a.533.533,0,0,1,.6-.6h1.152a.693.693,0,0,1,.439.15.538.538,0,0,1,.192.451v6.08a.6.6,0,0,1-.082.288.832.832,0,0,1-.3.287l-.055.055a9.786,9.786,0,0,1-2.867,1.465,11.022,11.022,0,0,1-3.389.506,10.176,10.176,0,0,1-4.073-.821A10.438,10.438,0,0,1,367.03,288a10.463,10.463,0,0,1,0-8.133,10.542,10.542,0,0,1,5.583-5.572,10.4,10.4,0,0,1,7.832-.11q.357.138.837.357t.919.465a3.717,3.717,0,0,1,.74.534.789.789,0,0,1,.3.533.571.571,0,0,1-.082.3l-.6.986a.55.55,0,0,1-.466.328.773.773,0,0,1-.521-.219,9.271,9.271,0,0,0-2.264-1.15,7.784,7.784,0,0,0-2.594-.438,7.918,7.918,0,0,0-3.278.671,8.04,8.04,0,0,0-2.565,1.794,8.342,8.342,0,0,0-1.675,2.574,7.86,7.86,0,0,0-.6,3.04,7.69,7.69,0,0,0,.645,3.135,8.121,8.121,0,0,0,4.335,4.273,7.971,7.971,0,0,0,3.113.615,7.643,7.643,0,0,0,2.552-.4A6.871,6.871,0,0,0,380.968,290.748Z" transform="translate(-366.207 -273.442)" fill="#fff"/>
      <path id="路径_327" data-name="路径 327" d="M410.492,273.993h13.2q.6,0,.6.63v1.123a.652.652,0,0,1-.165.438.581.581,0,0,1-.466.192H412.247v6.052h9.081a.645.645,0,0,1,.426.15.6.6,0,0,1,.179.479v1.123a.686.686,0,0,1-.152.438.541.541,0,0,1-.453.192h-9.081v7.12H423.77q.63,0,.631.657v1.123a.533.533,0,0,1-.6.6H410.492q-.6,0-.6-.575V274.623Q409.887,273.993,410.492,273.993Z" transform="translate(-387.214 -273.692)" fill="#fff"/>
      <path id="路径_328" data-name="路径 328" d="M463.9,294.311h-1.29a.676.676,0,0,1-.521-.246l-12.511-16.4v16.046q0,.6-.631.6h-1.124a.534.534,0,0,1-.6-.6V274.623a.64.64,0,0,1,.164-.452.574.574,0,0,1,.44-.178h1.508a.605.605,0,0,1,.521.274l12.319,15.991V274.513a.553.553,0,0,1,.6-.52H463.9a.706.706,0,0,1,.452.164.534.534,0,0,1,.207.438v19.113Q464.563,294.31,463.9,294.311Z" transform="translate(-405.178 -273.692)" fill="#fff"/>
      <path id="路径_329" data-name="路径 329" d="M490.959,273.993h13.2q.6,0,.6.63v1.123a.652.652,0,0,1-.165.438.581.581,0,0,1-.466.192H492.714v6.052H501.8a.645.645,0,0,1,.426.15.6.6,0,0,1,.179.479v1.123a.686.686,0,0,1-.152.438.541.541,0,0,1-.453.192h-9.081v7.12h11.523q.63,0,.631.657v1.123a.532.532,0,0,1-.6.6H490.959q-.6,0-.6-.575V274.623Q490.354,273.993,490.959,273.993Z" transform="translate(-425.913 -273.692)" fill="#fff"/>
      <path id="路径_330" data-name="路径 330" d="M537.328,277.935q-.33-.3-.823-.684a8.227,8.227,0,0,0-1.124-.726,7.713,7.713,0,0,0-1.386-.576,5.542,5.542,0,0,0-1.633-.232,6.138,6.138,0,0,0-1.989.287,4.068,4.068,0,0,0-1.371.754,3.028,3.028,0,0,0-.8,1.054,2.929,2.929,0,0,0-.259,1.191,1.845,1.845,0,0,0,.426,1.205,3.6,3.6,0,0,0,1.125.89,9.248,9.248,0,0,0,1.577.643q.877.275,1.755.521,1.234.328,2.51.725a10.814,10.814,0,0,1,2.332,1.027,5.7,5.7,0,0,1,1.728,1.56,3.971,3.971,0,0,1,.673,2.383,5.732,5.732,0,0,1-.6,2.656,6.077,6.077,0,0,1-1.632,2,7.359,7.359,0,0,1-2.428,1.26,10.056,10.056,0,0,1-3.018.438,9.891,9.891,0,0,1-4.073-.862,8.285,8.285,0,0,1-3.252-2.588.926.926,0,0,1-.22-.493.55.55,0,0,1,.247-.438l.878-.74a.7.7,0,0,1,.413-.137.528.528,0,0,1,.369.178c.118.12.2.2.234.233a7.177,7.177,0,0,0,1.358,1.109,9.85,9.85,0,0,0,1.508.795,9.494,9.494,0,0,0,1.441.479,5.185,5.185,0,0,0,1.179.164,7.4,7.4,0,0,0,1.784-.232,5.877,5.877,0,0,0,1.7-.713,4.113,4.113,0,0,0,1.262-1.218,3.038,3.038,0,0,0,.495-1.725,2.129,2.129,0,0,0-.468-1.41,4.059,4.059,0,0,0-1.234-.972,8.978,8.978,0,0,0-1.77-.7q-1-.288-2.071-.561a15.3,15.3,0,0,1-5.075-2.095,3.873,3.873,0,0,1-1.674-3.3,5.3,5.3,0,0,1,.493-2.3,5.091,5.091,0,0,1,1.428-1.794,6.738,6.738,0,0,1,2.236-1.164,9.606,9.606,0,0,1,2.894-.41,8.5,8.5,0,0,1,3.348.725,9.31,9.31,0,0,1,2.881,1.876l.342.4a.594.594,0,0,1,.179.37.632.632,0,0,1-.22.438l-.823.794a.534.534,0,0,1-.357.192A.756.756,0,0,1,537.328,277.935Z" transform="translate(-442.504 -273.417)" fill="#fff"/>
      <path id="路径_331" data-name="路径 331" d="M565.313,274.6v19.113a.533.533,0,0,1-.6.6h-1.152a.534.534,0,0,1-.6-.6V274.6a.534.534,0,0,1,.6-.6h1.152A.533.533,0,0,1,565.313,274.6Z" transform="translate(-460.884 -273.692)" fill="#fff"/>
      <path id="路径_332" data-name="路径 332" d="M588.249,277.935q-.329-.3-.824-.684a8.146,8.146,0,0,0-1.124-.726,7.611,7.611,0,0,0-1.386-.576,5.524,5.524,0,0,0-1.632-.232,6.148,6.148,0,0,0-1.989.287,4.091,4.091,0,0,0-1.371.754,3.014,3.014,0,0,0-.8,1.054,2.905,2.905,0,0,0-.261,1.191,1.845,1.845,0,0,0,.426,1.205,3.6,3.6,0,0,0,1.124.89,9.245,9.245,0,0,0,1.577.643q.877.275,1.755.521,1.236.328,2.512.725a10.846,10.846,0,0,1,2.331,1.027,5.713,5.713,0,0,1,1.729,1.56,3.977,3.977,0,0,1,.671,2.383,5.731,5.731,0,0,1-.6,2.656,6.062,6.062,0,0,1-1.633,2,7.357,7.357,0,0,1-2.428,1.26,10.055,10.055,0,0,1-3.018.438,9.9,9.9,0,0,1-4.073-.862,8.3,8.3,0,0,1-3.252-2.588.925.925,0,0,1-.219-.493.549.549,0,0,1,.247-.438l.879-.74a.694.694,0,0,1,.411-.137.526.526,0,0,1,.369.178l.234.233a7.159,7.159,0,0,0,1.358,1.109,9.892,9.892,0,0,0,1.508.795,9.52,9.52,0,0,0,1.44.479,5.194,5.194,0,0,0,1.179.164,7.4,7.4,0,0,0,1.784-.232,5.872,5.872,0,0,0,1.7-.713,4.111,4.111,0,0,0,1.263-1.218,3.036,3.036,0,0,0,.494-1.725,2.134,2.134,0,0,0-.467-1.41,4.077,4.077,0,0,0-1.235-.972,8.979,8.979,0,0,0-1.77-.7q-1-.288-2.071-.561a15.313,15.313,0,0,1-5.075-2.095,3.873,3.873,0,0,1-1.674-3.3,5.3,5.3,0,0,1,.495-2.3,5.092,5.092,0,0,1,1.426-1.794,6.752,6.752,0,0,1,2.236-1.164,9.609,9.609,0,0,1,2.894-.41,8.493,8.493,0,0,1,3.347.725,9.312,9.312,0,0,1,2.881,1.876c.11.128.224.26.344.4a.6.6,0,0,1,.178.37.633.633,0,0,1-.22.438l-.823.794a.533.533,0,0,1-.357.192A.751.751,0,0,1,588.249,277.935Z" transform="translate(-466.995 -273.417)" fill="#fff"/>
    </g>
  </g>
</svg>
