<svg xmlns="http://www.w3.org/2000/svg" xmlns:xlink="http://www.w3.org/1999/xlink" width="750.032" height="574.5" viewBox="0 0 750.032 574.5">
  <defs>
    <clipPath id="clip-path">
      <path id="路径_1528" data-name="路径 1528" d="M0,369.584S92.381,365.933,123.83,362s40.153-10.109,35.38-13.479-16.567-7.582-11.232-14.041,49.139-4.493,60.371-3.089,79.745,15.445,116.81,15.445,68.514-4.493,100.243-16.849,90.388-16.371,127.621-10.165,84.379-6.683,120.6-15.389S750,296.853,750,296.853V.053H0Z" transform="translate(0 -0.053)" fill="#508cff"/>
    </clipPath>
  </defs>
  <g id="首页banner-BG" transform="translate(0.008 200)">
    <path id="路径_334" data-name="路径 334" d="M0,369.272s92.381-3.649,123.83-7.579,40.153-10.1,35.38-13.472-16.567-7.578-11.232-14.033,49.139-4.491,60.371-3.087,79.745,15.436,116.81,15.436,68.514-4.491,100.243-16.84,90.388-16.362,127.621-10.16,84.379-6.68,120.6-15.38S750,296.58,750,296.58V-199.947H0Z" transform="translate(0 -0.053)" fill="#508cff"/>
    <path id="路径_333" data-name="路径 333" d="M0,824.523s92.381-3.639,123.83-7.557,40.153-10.075,35.38-13.434-16.567-7.557-11.232-13.994,49.139-4.478,60.371-3.079,79.745,15.393,116.81,15.393,68.514-4.478,100.243-16.792,90.388-16.316,127.621-10.131,84.379-6.661,120.6-15.337S750,752.036,750,752.036v-4.808s-43.319-1.06-84.518,6.768c-32.635,6.086-76.528,17.1-94.883,17.3-41.838,1.119-70.224-16.735-170.6,13.22-42.531,16.159-109.658,14.9-160.581,4.069-42.3-8.913-98.706-12.37-105.352-4.089-9.586,8.026,23.644,15.414,7.413,21.529-38.471,9.509-65.093,8.9-79.251,9.819C32.67,818.1,0,818.759,0,818.759Z" transform="translate(0 -455.305)" fill="#fff" opacity="0.2"/>
    <circle id="椭圆_92" data-name="椭圆 92" cx="50" cy="50" r="50" transform="translate(404 -75.094)" fill="#fff" opacity="0.2"/>
    <g id="蒙版组_8" data-name="蒙版组 8" transform="translate(0 -200)" clip-path="url(#clip-path)">
      <circle id="椭圆_91" data-name="椭圆 91" cx="170.5" cy="170.5" r="170.5" transform="translate(464 -83)" fill="#fff" opacity="0.05"/>
    </g>
    <path id="路径_337" data-name="路径 337" d="M0,848.5s92.735-1.563,124.584-6.25,42.777-7.5,45.587-12.187-12.8-12.187-11.241-16.875,29.351-2.187,50.583,0,108.316,26.562,168.8,11.125S483.441,793.435,524.438,797.9s75.905,11.781,126.644-2.844S750,778.185,750,778.185" transform="translate(0 -474.498)" fill="none" stroke="#508cff" stroke-width="1" stroke-dasharray="4" opacity="0.4"/>
    <ellipse id="椭圆_87" data-name="椭圆 87" cx="29.5" cy="29" rx="29.5" ry="29" transform="translate(263 -2.12)" fill="#ffaa01"/>
    <circle id="椭圆_88" data-name="椭圆 88" cx="5.5" cy="5.5" r="5.5" transform="translate(222 -40)" fill="#ffaa01"/>
    <ellipse id="椭圆_100" data-name="椭圆 100" cx="3.5" cy="4" rx="3.5" ry="4" transform="translate(602 44.865)" fill="#ff5e6b"/>
    <g id="组_248" data-name="组 248" transform="translate(298.438 58.213)">
      <path id="路径_1089" data-name="路径 1089" d="M162.007,342.7l2.372.259,2.838.321c1.122.126,2.421.2,3.836.325l2.227.182,2.5.116,2.683.131c.925.042,1.9.042,2.885.066s2.007.034,3.057.05l3.222-.044c2.2,0,4.492-.123,6.869-.2,4.739-.264,9.8-.614,15.061-1.174,5.264-.545,10.706-1.245,16.35-2.01s11.381-1.655,17.322-2.523c5.918-.882,11.988-1.766,18.155-2.618,6.176-.834,12.439-1.642,18.774-2.31,6.277-.717,12.718-1.2,18.944-1.655,6.273-.412,12.429-.7,18.353-.769,5.891-.136,11.537-.047,16.708.116s9.9.439,14.028.792c4.148.273,7.668.742,10.57,1.038,2.888.333,5.089.695,6.606.9l2.3.336-9.244-.454c-2.942-.077-6.465-.259-10.509-.294-4.032-.089-8.563-.064-13.448-.01-4.887.092-10.131.264-15.6.562l-4.153.231-4.211.315c-2.838.2-5.715.454-8.64.7-11.643,1.08-23.748,2.6-35.852,4.275l-18.2,2.485c-6.031.829-12.143,1.556-18.115,2.234-5.942.7-11.954,1.2-17.721,1.58-5.738.422-11.434.532-16.644.553-5.252-.039-10.087-.2-14.284-.591-2.106-.146-4.044-.355-5.805-.585l-2.527-.311c-.789-.128-1.543-.247-2.256-.362-2.892-.422-4.892-.883-6.3-1.184Z" transform="translate(-162.007 -316.865)" fill="#fff" opacity="0.15"/>
      <path id="路径_1090" data-name="路径 1090" d="M204.907,333.518s2.663-.478,7.383-1.262c4.766-.755,11.374-1.955,19.543-3.25,4.049-.668,8.529-1.337,13.27-2.039,4.823-.643,9.816-1.408,15.272-1.963,5.358-.641,11.091-1.141,16.962-1.585q4.484-.245,9.027-.489c3.042-.138,6.169-.158,9.259-.242,3.087-.1,6.253.015,9.375.052l4.68.079c1.556.045,3.112.153,4.661.227,3.092.18,6.177.283,9.185.555s5.969.565,8.886.84c1.462.126,2.9.278,4.295.479l4.165.559c2.729.39,5.447.7,8,1.131,5.059.895,9.9,1.674,14.181,2.557,4.26.9,8.12,1.76,11.529,2.518,3.366.791,6.176,1.568,8.546,2.162,4.7,1.218,7.33,1.938,7.33,1.938s-2.883-.557-7.836-1.57c-2.486-.5-5.432-1.156-8.928-1.805-3.539-.612-7.518-1.3-11.809-2.086-2.12-.422-4.485-.685-6.84-1.053l-7.321-1.1c-2.517-.362-5.178-.611-7.851-.932-2.695-.271-5.38-.7-8.214-.881l-8.554-.7c-2.888-.217-5.832-.284-8.783-.454-1.477-.064-2.962-.163-4.446-.2l-4.461-.054c-2.976-.024-5.984-.124-8.933-.013-2.959.069-5.949.071-8.876.192l-8.7.432c-5.679.422-11.332.782-16.639,1.353-5.368.49-10.452,1.114-15.327,1.644l-13.623,1.66c-8.426,1.05-15.563,1.876-20.525,2.446C207.792,333.229,204.907,333.518,204.907,333.518Z" transform="translate(-132.83 -322.646)" fill="#fff" opacity="0.15"/>
      <path id="路径_1091" data-name="路径 1091" d="M291.157,334.938s2.651.249,7.271.739c2.306.251,5.111.543,8.31.924l10.649,1.065c3.864.426,8.065.777,12.5,1.169q3.316.3,6.8.606c-7.745-.481-5.376-.4,7.065.51,4.81.419,9.693.606,14.674.907s9.947.4,14.918.553c4.916.069,9.885.2,14.577.077,4.774-.029,9.328-.205,13.736-.389,4.308-.269,8.519-.5,12.329-.883,1.98-.14,3.735-.389,5.511-.584s3.538-.367,5.079-.617c3.2-.442,6.083-.885,8.554-1.337,2.549-.414,4.55-.89,6.359-1.22l5.39-1.189-.982.481c-.67.3-1.526.806-2.88,1.346-1.418.511-2.937,1.236-5.159,1.866l-3.444,1.057-4.182,1.014c-2.959.686-6.347,1.364-10.2,1.913-1.94.264-3.888.577-5.98.823s-4.335.421-6.569.639c-2.253.2-4.653.306-7.034.466-2.362.182-4.86.249-7.405.288-5.023.168-10.292.091-15.544.051-5.323-.207-10.642-.352-15.921-.723-5.274-.331-10.481-.749-15.5-1.284-2.512-.252-4.978-.483-7.389-.75l-7.037-.912c-4.566-.564-8.865-1.174-12.812-1.84-3.943-.628-7.553-1.211-10.684-1.775-3.112-.58-5.807-1.124-8.033-1.561C293.682,335.478,291.157,334.938,291.157,334.938Z" transform="translate(-74.131 -314.031)" fill="#fff" opacity="0.15"/>
    </g>
  </g>
</svg>
