<svg xmlns="http://www.w3.org/2000/svg" xmlns:xlink="http://www.w3.org/1999/xlink" width="80" height="80" viewBox="0 0 80 80">
  <defs>
    <linearGradient id="linear-gradient" x1="0.5" x2="0.5" y2="1" gradientUnits="objectBoundingBox">
      <stop offset="0" stop-color="#fff"/>
      <stop offset="1" stop-color="#b1ccff" stop-opacity="0.6"/>
      <stop offset="1" stop-color="#508cff" stop-opacity="0.102"/>
    </linearGradient>
  </defs>
  <g id="私人消息" transform="translate(0.497)">
    <circle id="椭圆_52" data-name="椭圆 52" cx="40" cy="40" r="40" transform="translate(-0.497)" fill="url(#linear-gradient)"/>
    <circle id="椭圆_60" data-name="椭圆 60" cx="2.5" cy="2.5" r="2.5" transform="translate(6.503 26)" fill="#e6aa04"/>
    <circle id="椭圆_61" data-name="椭圆 61" cx="2" cy="2" r="2" transform="translate(69.503 38)" fill="#c1c2c5"/>
    <circle id="椭圆_62" data-name="椭圆 62" cx="1.5" cy="1.5" r="1.5" transform="translate(47.503 68)" fill="#ff5e6b"/>
    <g id="消息_" data-name="消息 " transform="translate(15.884 16.381)">
      <rect id="矩形_129" data-name="矩形 129" width="48" height="48" transform="translate(-0.381 -0.381)" fill="none"/>
      <path id="路径_209" data-name="路径 209" d="M575.949,912.27H549.2a5.434,5.434,0,0,0-5.41,5.446v19.943a5.435,5.435,0,0,0,5.41,5.447h6.966l5.484,6.311a1.221,1.221,0,0,0,1.849,0l5.484-6.311h6.966a5.434,5.434,0,0,0,5.409-5.447V917.716A5.433,5.433,0,0,0,575.949,912.27Z" transform="translate(-538.924 -907.064)" fill="#508cff"/>
      <path id="路径_208" data-name="路径 208" d="M562.889,932.894H552.21a1.216,1.216,0,1,1,0-2.433h10.679a1.216,1.216,0,1,1,0,2.433Zm10.252-7.868H552.21a1.216,1.216,0,0,1,0-2.433h20.931a1.216,1.216,0,1,1,0,2.433Z" transform="translate(-539.362 -907.691)" fill="#fff"/>
    </g>
  </g>
</svg>
