<svg xmlns="http://www.w3.org/2000/svg" xmlns:xlink="http://www.w3.org/1999/xlink" width="80" height="80" viewBox="0 0 80 80">
  <defs>
    <linearGradient id="linear-gradient" x1="0.5" x2="0.5" y2="1" gradientUnits="objectBoundingBox">
      <stop offset="0" stop-color="#fff"/>
      <stop offset="1" stop-color="#b1ccff" stop-opacity="0.6"/>
      <stop offset="1" stop-color="#508cff" stop-opacity="0.102"/>
    </linearGradient>
  </defs>
  <g id="个人中心" transform="translate(0 -0.157)">
    <circle id="椭圆_53" data-name="椭圆 53" cx="40" cy="40" r="40" transform="translate(0 0.157)" fill="url(#linear-gradient)"/>
    <ellipse id="椭圆_63" data-name="椭圆 63" cx="3" cy="2.5" rx="3" ry="2.5" transform="translate(61 24.157)" fill="#e6aa04"/>
    <ellipse id="椭圆_64" data-name="椭圆 64" cx="1.5" cy="2" rx="1.5" ry="2" transform="translate(13 36.157)" fill="#c1c2c5"/>
    <circle id="椭圆_65" data-name="椭圆 65" cx="1.5" cy="1.5" r="1.5" transform="translate(33 67.157)" fill="#ff5e6b"/>
    <g id="我的" transform="translate(16.409 16.565)">
      <rect id="矩形_131" data-name="矩形 131" width="48" height="48" transform="translate(-0.409 -0.409)" fill="none"/>
      <path id="路径_207" data-name="路径 207" d="M457.715,937.143a17.835,17.835,0,0,0-7.075-4.582c.208-.156.422-.305.632-.451.347-.241.707-.492,1.038-.774a10.873,10.873,0,0,0,3.645-7.9,10.688,10.688,0,0,0-5.49-9.628l-.056-.03c-.266-.148-.535-.286-.808-.409-.052-.023-.1-.042-.156-.065-.249-.106-.5-.208-.751-.294-.074-.024-.149-.044-.223-.068-.236-.074-.472-.145-.711-.2-.1-.022-.193-.037-.29-.058-.22-.046-.439-.09-.661-.122-.125-.017-.25-.025-.375-.038-.194-.02-.388-.042-.583-.051-.16-.007-.32,0-.48,0s-.321,0-.481,0c-.2.008-.389.031-.583.051-.126.013-.251.022-.375.038-.221.032-.441.077-.661.122-.1.021-.194.036-.29.058-.238.057-.475.129-.711.2-.074.024-.149.043-.223.068-.253.086-.5.188-.751.294-.052.022-.1.041-.156.065-.274.123-.542.261-.809.409l-.055.03a10.55,10.55,0,0,0-1.109.71,10.729,10.729,0,0,0-4.38,8.918,10.873,10.873,0,0,0,3.645,7.9c.331.282.691.532,1.038.774.209.146.423.3.632.451a17.835,17.835,0,0,0-7.075,4.582,17.262,17.262,0,0,0-3.777,6.615l-.012.038c-.143.466-.262.939-.364,1.418-.023.1-.049.2-.069.306-.078.4-.133.8-.183,1.211-.021.167-.049.332-.065.5-.038.417-.053.837-.061,1.259,0,.116-.017.23-.017.346a1.166,1.166,0,0,0,0,.172c0,.022,0,.043,0,.065a1.082,1.082,0,0,0,.077.215.96.96,0,0,0,.823.692v.036L461.1,950h.071l0-.007h.021a1.1,1.1,0,0,0,1.077-.922A17.253,17.253,0,0,0,457.715,937.143Z" transform="translate(-421.608 -907.442)" fill="#508cff"/>
    </g>
  </g>
</svg>
