<svg xmlns="http://www.w3.org/2000/svg" width="140" height="140" viewBox="0 0 140 140">
  <g id="_1-2-万用细胞" data-name="1-2-万用细胞" transform="translate(35.86 37.737)">
    <g id="椭圆_70" data-name="椭圆 70" transform="translate(-35.86 -37.737)" fill="none" stroke="#508cff" stroke-width="1">
      <circle cx="70" cy="70" r="70" stroke="none"/>
      <circle cx="70" cy="70" r="69.5" fill="none"/>
    </g>
    <path id="路径_363" data-name="路径 363" d="M255.252,327.261a15.42,15.42,0,0,1,0-30.84" transform="translate(-225.772 -278.659)" fill="#508cff" opacity="0.4"/>
    <path id="路径_364" data-name="路径 364" d="M536.6,103.777v-.193a2753.922,2753.922,0,0,0-.385-.385l-5.783-6.357,5.783-6.164a.189.189,0,0,1,.193-.193l.193-.193v-.771a1966.678,1966.678,0,0,0-.385-.385l-3.855-4.045a.189.189,0,0,1-.193-.193l-.193-.193h-.964a1720.748,1720.748,0,0,0-.385.385l-7.9,7.705-11.18.193,5.783-9.824,10.408-2.889c.193,0,.193,0,.386-.193h.193c.193,0,.193-.193.193-.385v-.193c0-.193,0-.193.193-.385V78.35l-1.542-5.394c0-.193,0-.193-.193-.193v-.193c-.193-.193-.578-.385-.771-.578h-.578l-8.481,1.926-2.7-8.476a1967.7,1967.7,0,0,1-.386-.385l-.193-.193-.193-.193H512.7l-5.4,1.156a809.919,809.919,0,0,1-.385.385l-.193.193-.193.193a.189.189,0,0,0-.193.193v.578l3.084,11.173-6.939,11.943a1.493,1.493,0,0,0,.385,1.926c.193.193.386.193.771.193a1.374,1.374,0,0,0,1.156-.578L512.117,79.7c-.193-.385,0-.385,0-.578v-.578l-2.891-10.595,3.084-.771,2.7,8.476v.385l.193.193.193.193a.189.189,0,0,1,.193.193h.964l8.288-1.926.771,3.082-9.637,2.7h-.193c-.193,0-.193,0-.386.193a.189.189,0,0,0-.193.193l-.193.193-7.324,12.328v.963a1530.134,1530.134,0,0,0,.386.385l.193.193.193.193a.708.708,0,0,0,.578.193l14.071-.193h.578l.193-.193a.189.189,0,0,0,.193-.193l7.324-7.127,1.927,2.119-5.782,6.164a.189.189,0,0,1-.193.193l-.193.193v.771a13762.855,13762.855,0,0,0,.386.385l5.782,6.357-2.12,2.5-7.132-7.127a.189.189,0,0,1-.193-.193l-.193-.193H523.1l-14.071-.193h-.578a1966.678,1966.678,0,0,0-.385.385l-.193.193a.189.189,0,0,1-.193.193v.771l6.554,11.751c.193.193.193.385.385.385h.193a.189.189,0,0,1,.193.193l10.6,3.082-.771,2.889-8.481-2.312h-.578c-.386,0-.578.193-.964.578a.189.189,0,0,1-.193.193l-.193.193-2.506,8.668-2.7-.963,2.506-9.824v-.578c0-.193,0-.193-.193-.385v-.193l-7.132-12.714a1.423,1.423,0,0,0-2.506,1.348l6.939,12.136-2.7,10.595v.77l.193.193.193.193a860.578,860.578,0,0,0,.385.385l5.2,1.734h.964a.189.189,0,0,0,.193-.193l.193-.193v-.193l.193-.193,2.7-8.668,9.252,2.7h.964a.189.189,0,0,0,.193-.193l.193-.193.193-.193v-.193a.189.189,0,0,1,.193-.193l1.542-5.394v-.578c0-.193,0-.193-.193-.385v-.193a.189.189,0,0,0-.193-.193v-.193c-.193-.193-.193-.193-.385-.193l-11.372-3.275-5.2-9.246,11.179.193,7.71,7.9.193.193a.189.189,0,0,1,.193.193c.193,0,.386.193.578.193a.708.708,0,0,0,.578-.193h.193c.193,0,.193-.193.385-.193l4.048-4.238a.189.189,0,0,1,.193-.193l.193-.193v-.385c-.385-.385-.385-.578-.385-.578Z" transform="translate(-468.982 -63.467)" fill="#508cff"/>
    <path id="路径_365" data-name="路径 365" d="M75.112,109.9c-2.12-4.045-6.746-12.521-20.624-8.283,2.7-11.365-.385-14.255-8.1-20.227,9.83-5.779,9.83-12.906,8.1-20.419a24.937,24.937,0,0,0,6.361.771A15.015,15.015,0,0,0,67.98,60c5.59-2.89,7.517-8.861,7.9-10.595.193-.771-.193-1.541-.964-1.541-.771-.193-1.542.193-1.542.963-.386,1.541-1.927,6.357-6.553,8.861-3.662,1.926-8.288,1.734-13.685-.385h-.771a9175.582,9175.582,0,0,0-.385.385l-.193.193-.193.193v.771c2.506,8.669,3.277,15.025-7.9,20.8l-.193.193-.193.193v.193l-.193.193v.963a.414.414,0,0,0,.385.385l.578.385c8.866,6.935,10.987,8.476,7.517,20.612v.771a.189.189,0,0,0,.193.193l.193.193.193.193a.189.189,0,0,1,.193.193h.771c13.685-5.009,17.347,1.734,19.66,6.357a16.937,16.937,0,0,0,1.156,1.926,1.374,1.374,0,0,0,1.156.578,1.159,1.159,0,0,0,.771-.193,1.493,1.493,0,0,0,.385-1.926c-.578,0-.771-.578-1.156-1.156Z" transform="translate(-43.116 -47.819)" fill="#508cff"/>
    <path id="路径_366" data-name="路径 366" d="M223.663,294.327A16.781,16.781,0,0,0,240.432,311.1a1.317,1.317,0,0,0,1.349-1.349v-30.84a1.317,1.317,0,0,0-1.349-1.349,16.781,16.781,0,0,0-16.769,16.769Zm2.7,0a13.876,13.876,0,0,1,12.721-13.878V308.4A14.2,14.2,0,0,1,226.361,294.327Z" transform="translate(-210.759 -261.145)" fill="#508cff"/>
  </g>
</svg>
