<svg xmlns="http://www.w3.org/2000/svg" width="140" height="140" viewBox="0 0 140 140">
  <g id="_1-2-再生能力" data-name="1-2-再生能力" transform="translate(36.225 38.233)">
    <g id="椭圆_71" data-name="椭圆 71" transform="translate(-36.225 -38.233)" fill="none" stroke="#508cff" stroke-width="1">
      <circle cx="70" cy="70" r="70" stroke="none"/>
      <circle cx="70" cy="70" r="69.5" fill="none"/>
    </g>
    <path id="路径_358" data-name="路径 358" d="M340.651,246.335m-6.5,0a6.5,6.5,0,1,0,6.5-6.5A6.5,6.5,0,0,0,334.147,246.335Z" transform="translate(-312.804 -225.373)" fill="#508cff" opacity="0.4"/>
    <path id="路径_359" data-name="路径 359" d="M609.168,487.9m-5.547,0a5.547,5.547,0,1,0,5.547-5.547A5.547,5.547,0,0,0,603.621,487.9Z" transform="translate(-563.056 -450.38)" fill="#508cff" opacity="0.4"/>
    <path id="路径_360" data-name="路径 360" d="M293.193,489.909a1.307,1.307,0,0,0,1.339-1.339V472.885a4.208,4.208,0,0,1,8.416,0,4.645,4.645,0,0,1-2.678,4.017c-.765.191-.956.956-.765,1.722a1.438,1.438,0,0,0,1.339.956h.383a6.92,6.92,0,1,0-9.373-6.5V488.57a1.307,1.307,0,0,0,1.339,1.339Zm-17.215-22.571a6.45,6.45,0,0,0-6.5,6.5,6.648,6.648,0,0,0,4.208,6.121h.383a1.438,1.438,0,0,0,1.339-.956c.191-.765,0-1.53-.765-1.721a3.74,3.74,0,0,1-2.487-3.634,3.826,3.826,0,0,1,7.651,0v14.92a1.339,1.339,0,1,0,2.678,0V473.841A6.7,6.7,0,0,0,275.977,467.338Z" transform="translate(-252.681 -435.221)" fill="#508cff"/>
    <path id="路径_361" data-name="路径 361" d="M323.127,65.229a7.938,7.938,0,0,0-7.843,7.963,8.057,8.057,0,0,0,4.973,7.38h.383a1.44,1.44,0,0,0,1.339-.971c.191-.777,0-1.554-.765-1.748A5.292,5.292,0,0,1,317.962,73a5.165,5.165,0,1,1,10.329,0v32.435a1.339,1.339,0,1,0,2.678,0V73a7.774,7.774,0,0,0-7.842-7.769ZM347.8,57.46l4.973-1.942a1.369,1.369,0,0,0,.765-1.748,1.336,1.336,0,0,0-1.721-.777l-7.46,3.107a.188.188,0,0,0-.191.194h-.191c-.191,0-.191.194-.191.388s0,.194-.191.388v.194l-.191,8.351a1.339,1.339,0,1,0,2.678,0l.191-6.021a31.73,31.73,0,0,1-11.286,57.683,1.474,1.474,0,0,0-1.148,1.554A1.648,1.648,0,0,0,335.177,120h.191C351.436,117.085,363.1,102.713,363.1,86.2A34.2,34.2,0,0,0,347.8,57.46Z" transform="translate(-295.104 -51.999)" fill="#508cff"/>
    <path id="路径_362" data-name="路径 362" d="M54.351,103.044l-.191-8.155a1.448,1.448,0,0,0-1.339-1.359,1.317,1.317,0,0,0-1.339,1.359v5.437A31.63,31.63,0,0,1,65.637,42.655a1.373,1.373,0,0,0-.383-2.718,34.51,34.51,0,0,0-14.92,62.914l-5.356,2.524a1.346,1.346,0,0,0,.574,2.524.7.7,0,0,0,.574-.194l7.46-3.5h.191c.191,0,.191-.194.383-.194l.191-.194.191-.194a.72.72,0,0,1-.191-.583Z" transform="translate(-35.031 -39.899)" fill="#508cff"/>
  </g>
</svg>
