<svg xmlns="http://www.w3.org/2000/svg" width="306.708" height="40" viewBox="0 0 306.708 40">
  <g id="_2-1-STEM_CELLS" data-name="2-1-STEM CELLS" transform="translate(-365.207 -513.816)">
    <path id="路径_1585" data-name="路径 1585" d="M389.5,522.454q-.641-.575-1.6-1.308a15.936,15.936,0,0,0-2.19-1.385,14.849,14.849,0,0,0-2.7-1.1,11,11,0,0,0-3.177-.443,12.149,12.149,0,0,0-3.871.548,8.012,8.012,0,0,0-2.67,1.44,5.819,5.819,0,0,0-1.549,2.016,5.508,5.508,0,0,0-.507,2.277,3.492,3.492,0,0,0,.829,2.3,6.966,6.966,0,0,0,2.189,1.7,18.144,18.144,0,0,0,3.07,1.229q1.709.524,3.418,1,2.4.627,4.885,1.385a21.324,21.324,0,0,1,4.539,1.964,11.066,11.066,0,0,1,3.363,2.982,7.5,7.5,0,0,1,1.309,4.556,10.82,10.82,0,0,1-1.175,5.079,11.651,11.651,0,0,1-3.177,3.82,14.423,14.423,0,0,1-4.726,2.41,19.928,19.928,0,0,1-5.873.837,19.559,19.559,0,0,1-7.93-1.65,16.076,16.076,0,0,1-6.328-4.946,1.743,1.743,0,0,1-.427-.942,1.044,1.044,0,0,1,.48-.837l1.708-1.416a1.379,1.379,0,0,1,.8-.261,1.036,1.036,0,0,1,.721.341c.231.23.383.375.454.447a14.025,14.025,0,0,0,2.644,2.118,19.6,19.6,0,0,0,2.936,1.52,18.814,18.814,0,0,0,2.8.914,10.247,10.247,0,0,0,2.3.314,14.71,14.71,0,0,0,3.471-.443,11.6,11.6,0,0,0,3.31-1.363,7.947,7.947,0,0,0,2.455-2.328,5.74,5.74,0,0,0,.962-3.3,4.034,4.034,0,0,0-.909-2.7,7.944,7.944,0,0,0-2.4-1.856,17.644,17.644,0,0,0-3.445-1.336q-1.95-.549-4.031-1.074-6.622-1.674-9.878-4.005a7.356,7.356,0,0,1-3.257-6.307,9.973,9.973,0,0,1,.961-4.4,9.768,9.768,0,0,1,2.777-3.429,13.2,13.2,0,0,1,4.351-2.226,19.022,19.022,0,0,1,5.634-.786,16.781,16.781,0,0,1,6.515,1.388,18.19,18.19,0,0,1,5.606,3.586c.213.246.435.5.667.76a1.126,1.126,0,0,1,.347.706,1.189,1.189,0,0,1-.427.836l-1.6,1.518a1.043,1.043,0,0,1-.693.366A1.475,1.475,0,0,1,389.5,522.454Z" fill="#231815"/>
    <path id="路径_1586" data-name="路径 1586" d="M479.977,551.544H477.9c-.43,0-.784-.316-1.07-.945l-12.28-28.307-2.939,29.774c0,.765-.41,1.151-1.228,1.151h-2.242a1.028,1.028,0,0,1-1.174-1.151q.961-9.212,1.921-18.262t1.922-18.261a1.035,1.035,0,0,1,.374-.837,1.365,1.365,0,0,1,.907-.314H465.4a1.208,1.208,0,0,1,1.174.994l12.39,29.2q3.092-7.324,6.194-14.6t6.191-14.6c.18-.66.554-.994,1.124-.994h3.469a1.121,1.121,0,0,1,.854.341,1.138,1.138,0,0,1,.321.81l3.9,36.523c0,.765-.41,1.151-1.228,1.151h-2.245a1.028,1.028,0,0,1-1.174-1.151l-2.99-29.774L481.1,550.6C480.847,551.228,480.474,551.544,479.977,551.544Z" transform="translate(-0.475 0.01)" fill="#231815"/>
    <path id="路径_1587" data-name="路径 1587" d="M557.347,517.8c.461.278.694.576.694.89a.986.986,0,0,1-.135.5c-.09.158-.168.289-.238.394l-1.124,1.727c-.321.419-.621.628-.908.628-.107-.033-.238-.077-.4-.129a2.456,2.456,0,0,1-.561-.29,17.623,17.623,0,0,0-4.43-2.226,15.141,15.141,0,0,0-4.861-.809,16.056,16.056,0,0,0-6.432,1.256,15.843,15.843,0,0,0-5.021,3.377,15.22,15.22,0,0,0-3.284,4.921,15.068,15.068,0,0,0-1.175,5.888,14.288,14.288,0,0,0,1.307,6.073,15.79,15.79,0,0,0,3.5,4.894,16.4,16.4,0,0,0,5.049,3.248,15.609,15.609,0,0,0,9.956.653,17.78,17.78,0,0,0,4.379-1.936,5.309,5.309,0,0,0,1.068-.708,1.566,1.566,0,0,1,.907-.443,1.16,1.16,0,0,1,.908.628l1.23,1.988a1.826,1.826,0,0,1,.161.733.973.973,0,0,1-.587.89,21.174,21.174,0,0,1-5.607,2.853,20.559,20.559,0,0,1-6.568,1.022,20.161,20.161,0,0,1-7.931-1.57,20.676,20.676,0,0,1-6.461-4.267,20.192,20.192,0,0,1-4.352-6.335,19.68,19.68,0,0,1,0-15.552,20.266,20.266,0,0,1,4.379-6.36,20.718,20.718,0,0,1,6.486-4.294,20.792,20.792,0,0,1,14.364-.548A21.032,21.032,0,0,1,557.347,517.8Z" transform="translate(-0.684 0.001)" fill="#231815"/>
    <g id="组_1187" data-name="组 1187" transform="translate(417.767 514.403)">
      <path id="路径_1588" data-name="路径 1588" d="M429.372,519.04h22.214a1.132,1.132,0,0,0,.908-.374,1.282,1.282,0,0,0,.32-.854v-2.192q0-1.226-1.174-1.228H419.176q-1.176,0-1.176,1.228v3.419Z" transform="translate(-418 -514.393)" fill="#231815"/>
      <path id="路径_1589" data-name="路径 1589" d="M434.067,530.551H424.66v4.644h24.3a1.054,1.054,0,0,0,.883-.374,1.343,1.343,0,0,0,.293-.854v-2.189a1.167,1.167,0,0,0-.346-.935,1.259,1.259,0,0,0-.83-.292Z" transform="translate(-417.88 -514.477)" fill="#508cff"/>
      <path id="路径_1590" data-name="路径 1590" d="M447.608,548.751H424.66v3.526q0,1.121,1.176,1.121h21.825a1.039,1.039,0,0,0,1.175-1.175v-2.191Q448.835,548.752,447.608,548.751Z" transform="translate(-417.88 -514.573)" fill="#231815"/>
    </g>
    <path id="路径_1591" data-name="路径 1591" d="M421.091,514.393h-23.2c-.82,0-1.229.385-1.229,1.151v2.147a1.1,1.1,0,0,0,1.229,1.256h18.552v33.121a1.073,1.073,0,0,0,.347.837,1.26,1.26,0,0,0,.881.314h2.19a1.183,1.183,0,0,0,.908-.341,1.142,1.142,0,0,0,.32-.81V514.393Z" transform="translate(0.565 0.01)" fill="#231815"/>
    <path id="路径_1592" data-name="路径 1592" d="M612,548.769h-9.694V515.544a1.027,1.027,0,0,0-1.174-1.151h-2.188a1.187,1.187,0,0,0-.907.341,1.138,1.138,0,0,0-.321.81v36.523a1.029,1.029,0,0,0,1.175,1.151H612Z" transform="translate(-0.668 0.01)" fill="#231815"/>
    <path id="路径_1593" data-name="路径 1593" d="M620.565,548.769h19.277a1.188,1.188,0,0,1,.827.314,1.134,1.134,0,0,1,.348.889v2.095a1.138,1.138,0,0,1-.321.81,1.114,1.114,0,0,1-.854.341H617.15a1.029,1.029,0,0,1-1.175-1.151V515.544a1.138,1.138,0,0,1,.321-.81,1.187,1.187,0,0,1,.907-.341h2.189a1.028,1.028,0,0,1,1.174,1.151Z" transform="translate(-1.606 0.01)" fill="#231815"/>
    <path id="路径_1594" data-name="路径 1594" d="M667.692,522.454q-.641-.575-1.6-1.308a15.865,15.865,0,0,0-2.189-1.385,14.766,14.766,0,0,0-2.7-1.1,10.974,10.974,0,0,0-3.177-.443,12.157,12.157,0,0,0-3.871.548,8.038,8.038,0,0,0-2.669,1.44,5.775,5.775,0,0,0-1.547,2.016,5.479,5.479,0,0,0-.509,2.277,3.487,3.487,0,0,0,.829,2.3,6.967,6.967,0,0,0,2.189,1.7,18.107,18.107,0,0,0,3.07,1.229q1.707.524,3.416,1,2.406.627,4.888,1.385a21.352,21.352,0,0,1,4.537,1.964,11.076,11.076,0,0,1,3.365,2.982,7.514,7.514,0,0,1,1.306,4.556,10.808,10.808,0,0,1-1.174,5.079,11.618,11.618,0,0,1-3.178,3.82,14.412,14.412,0,0,1-4.724,2.41,19.933,19.933,0,0,1-5.875.837,19.556,19.556,0,0,1-7.928-1.65,16.078,16.078,0,0,1-6.329-4.946,1.754,1.754,0,0,1-.428-.942,1.044,1.044,0,0,1,.481-.837l1.711-1.416a1.374,1.374,0,0,1,.8-.261,1.037,1.037,0,0,1,.72.341l.455.447a13.958,13.958,0,0,0,2.644,2.118,19.654,19.654,0,0,0,2.936,1.52,18.892,18.892,0,0,0,2.8.914,10.245,10.245,0,0,0,2.294.314,14.7,14.7,0,0,0,3.472-.443,11.6,11.6,0,0,0,3.309-1.363,7.934,7.934,0,0,0,2.458-2.328,5.739,5.739,0,0,0,.961-3.3,4.039,4.039,0,0,0-.908-2.7,7.947,7.947,0,0,0-2.4-1.856,17.609,17.609,0,0,0-3.444-1.336q-1.947-.549-4.031-1.074-6.621-1.674-9.877-4.005a7.358,7.358,0,0,1-3.26-6.307,9.989,9.989,0,0,1,.964-4.4,9.773,9.773,0,0,1,2.775-3.429,13.225,13.225,0,0,1,4.352-2.226,19.009,19.009,0,0,1,5.632-.786,16.765,16.765,0,0,1,6.515,1.388,18.17,18.17,0,0,1,5.607,3.586c.214.246.436.5.669.76a1.129,1.129,0,0,1,.346.706,1.194,1.194,0,0,1-.427.836l-1.6,1.518a1.043,1.043,0,0,1-.693.366A1.469,1.469,0,0,1,667.692,522.454Z" transform="translate(-1.113)" fill="#231815"/>
    <g id="组_1188" data-name="组 1188" transform="translate(563.122 514.403)">
      <path id="路径_1595" data-name="路径 1595" d="M590.915,548.665H568.486V518.947H590.7a1.142,1.142,0,0,0,.907-.366,1.238,1.238,0,0,0,.321-.837V515.6a1.052,1.052,0,0,0-1.175-1.2H565.07a1.05,1.05,0,0,0-1.174,1.2V552.12c0,.732.39,1.1,1.174,1.1h25.9a1.029,1.029,0,0,0,1.174-1.151v-2.147A1.1,1.1,0,0,0,590.915,548.665Z" transform="translate(-563.896 -514.393)" fill="#231815"/>
      <path id="路径_1596" data-name="路径 1596" d="M586.027,535.195a1.055,1.055,0,0,0,.882-.374,1.349,1.349,0,0,0,.292-.854v-2.189a1.166,1.166,0,0,0-.345-.935,1.258,1.258,0,0,0-.829-.292H571.405v4.644Z" transform="translate(-563.761 -514.477)" fill="#508cff"/>
    </g>
  </g>
</svg>
