<svg xmlns="http://www.w3.org/2000/svg" width="600" height="78.25" viewBox="0 0 600 78.25">
  <g id="_2-2-STEM_CELLS" data-name="2-2-STEM CELLS" transform="translate(-365.207 -513.816)" opacity="0.05">
    <path id="路径_1585" data-name="路径 1585" d="M412.244,530.715q-1.242-1.125-3.1-2.56a30.823,30.823,0,0,0-4.239-2.71,28.582,28.582,0,0,0-5.219-2.155,21.082,21.082,0,0,0-6.151-.867,23.3,23.3,0,0,0-7.5,1.072,15.462,15.462,0,0,0-5.17,2.817,11.371,11.371,0,0,0-3,3.944,10.871,10.871,0,0,0-.982,4.455,6.875,6.875,0,0,0,1.6,4.506,13.512,13.512,0,0,0,4.237,3.329,34.934,34.934,0,0,0,5.944,2.4q3.308,1.025,6.618,1.951,4.65,1.227,9.458,2.71a41.07,41.07,0,0,1,8.788,3.842,21.5,21.5,0,0,1,6.512,5.834,14.784,14.784,0,0,1,2.535,8.913,21.348,21.348,0,0,1-2.274,9.936,22.739,22.739,0,0,1-6.151,7.472,27.821,27.821,0,0,1-9.151,4.715,38.218,38.218,0,0,1-11.37,1.638,37.533,37.533,0,0,1-15.353-3.227,31.173,31.173,0,0,1-12.251-9.677,3.429,3.429,0,0,1-.826-1.843,2.047,2.047,0,0,1,.93-1.638l3.307-2.77a2.653,2.653,0,0,1,1.551-.511,2,2,0,0,1,1.4.667c.447.449.741.734.879.875a27.2,27.2,0,0,0,5.118,4.143,37.822,37.822,0,0,0,5.684,2.974,36.147,36.147,0,0,0,5.428,1.788,19.641,19.641,0,0,0,4.446.615,28.194,28.194,0,0,0,6.721-.867,22.334,22.334,0,0,0,6.409-2.667,15.454,15.454,0,0,0,4.754-4.553,11.314,11.314,0,0,0,1.863-6.455,7.944,7.944,0,0,0-1.76-5.275,15.4,15.4,0,0,0-4.649-3.632,33.954,33.954,0,0,0-6.67-2.614q-3.775-1.075-7.8-2.1-12.822-3.274-19.126-7.835a14.435,14.435,0,0,1-6.307-12.338,19.681,19.681,0,0,1,1.861-8.6,19.072,19.072,0,0,1,5.377-6.709,25.463,25.463,0,0,1,8.424-4.354,36.473,36.473,0,0,1,10.909-1.537,32.2,32.2,0,0,1,12.614,2.716,35.176,35.176,0,0,1,10.854,7.016c.412.48.841.97,1.291,1.488a2.212,2.212,0,0,1,.672,1.38,2.336,2.336,0,0,1-.828,1.636l-3.1,2.97a2.012,2.012,0,0,1-1.342.716A2.847,2.847,0,0,1,412.244,530.715Z" transform="translate(0)"/>
    <path id="路径_1586" data-name="路径 1586" d="M501.52,587.093h-4.03c-.832,0-1.518-.619-2.072-1.849l-23.775-55.392-5.69,58.264c0,1.5-.794,2.253-2.377,2.253h-4.34a2,2,0,0,1-2.272-2.253q1.86-18.027,3.719-35.736t3.721-35.734a2.034,2.034,0,0,1,.723-1.638,2.625,2.625,0,0,1,1.756-.615H473.3a2.345,2.345,0,0,1,2.272,1.944l23.988,57.137q5.987-14.332,11.993-28.571,5.987-14.23,11.987-28.567c.349-1.292,1.072-1.944,2.176-1.944h6.717a2.159,2.159,0,0,1,1.654.668,2.24,2.24,0,0,1,.621,1.585l7.549,71.471c0,1.5-.794,2.253-2.377,2.253H535.53a2,2,0,0,1-2.272-2.253l-5.789-58.264L503.69,585.245C503.205,586.475,502.482,587.093,501.52,587.093Z" transform="translate(87.121 0.56)"/>
    <path id="路径_1587" data-name="路径 1587" d="M587.789,521.552c.893.545,1.344,1.127,1.344,1.742a1.943,1.943,0,0,1-.262.969c-.173.308-.325.566-.461.771l-2.176,3.378c-.621.82-1.2,1.228-1.758,1.228-.207-.064-.461-.15-.772-.252a4.732,4.732,0,0,1-1.086-.566,33.987,33.987,0,0,0-8.577-4.354,29.043,29.043,0,0,0-9.411-1.583,30.6,30.6,0,0,0-22.175,9.063,30.132,30.132,0,0,0-8.632,21.147,28.2,28.2,0,0,0,2.531,11.881,30.887,30.887,0,0,0,6.77,9.575A31.719,31.719,0,0,0,552.9,580.9a29.927,29.927,0,0,0,19.275,1.277,34.236,34.236,0,0,0,8.479-3.788,10.27,10.27,0,0,0,2.068-1.384,3.018,3.018,0,0,1,1.756-.867,2.245,2.245,0,0,1,1.758,1.228l2.381,3.889a3.6,3.6,0,0,1,.311,1.433,1.9,1.9,0,0,1-1.137,1.742,40.843,40.843,0,0,1-10.856,5.582,39.433,39.433,0,0,1-12.716,2,38.687,38.687,0,0,1-15.355-3.071,40,40,0,0,1-12.509-8.347,39.521,39.521,0,0,1-8.426-12.392,38.869,38.869,0,0,1,0-30.423,39.661,39.661,0,0,1,8.479-12.441,40.083,40.083,0,0,1,12.559-8.4,39.868,39.868,0,0,1,27.811-1.072A40.57,40.57,0,0,1,587.789,521.552Z" transform="translate(151.688 0.052)"/>
    <g id="组_1187" data-name="组 1187" transform="translate(468.164 514.953)">
      <path id="路径_1588" data-name="路径 1588" d="M440.017,523.39h43.009a2.191,2.191,0,0,0,1.758-.723,2.483,2.483,0,0,0,.619-1.654V516.77q0-2.374-2.272-2.377H420.276q-2.276,0-2.276,2.377v6.62Z" transform="translate(-418 -514.393)"/>
      <path id="路径_1589" data-name="路径 1589" d="M442.873,530.551H424.66v8.991h47.051a2.042,2.042,0,0,0,1.709-.723,2.6,2.6,0,0,0,.568-1.654v-4.237a2.259,2.259,0,0,0-.67-1.811,2.437,2.437,0,0,0-1.606-.566Z" transform="translate(-411.534 -499.052)"/>
      <path id="路径_1590" data-name="路径 1590" d="M469.09,548.751H424.66v6.827q0,2.17,2.276,2.17h42.256a2.012,2.012,0,0,0,2.274-2.275v-4.241Q471.467,548.752,469.09,548.751Z" transform="translate(-411.534 -481.772)"/>
    </g>
    <path id="路径_1591" data-name="路径 1591" d="M443.957,514.393H399.044c-1.589,0-2.379.753-2.379,2.253v4.2a2.137,2.137,0,0,0,2.379,2.458h35.92v64.813a2.111,2.111,0,0,0,.672,1.638,2.425,2.425,0,0,0,1.7.615h4.239a2.278,2.278,0,0,0,1.758-.668,2.247,2.247,0,0,0,.619-1.585V514.393Z" transform="translate(30.542 0.56)"/>
    <path id="路径_1592" data-name="路径 1592" d="M625.374,581.663H606.6V516.646a2,2,0,0,0-2.273-2.253h-4.237a2.285,2.285,0,0,0-1.756.668,2.24,2.24,0,0,0-.621,1.585v71.471a2,2,0,0,0,2.274,2.253h25.381Z" transform="translate(221.261 0.56)"/>
    <path id="路径_1593" data-name="路径 1593" d="M624.862,581.663h37.323a2.285,2.285,0,0,1,1.6.615,2.231,2.231,0,0,1,.674,1.739v4.1a2.24,2.24,0,0,1-.621,1.585,2.145,2.145,0,0,1-1.654.668H618.249a2,2,0,0,1-2.274-2.253V516.646a2.24,2.24,0,0,1,.621-1.585,2.285,2.285,0,0,1,1.756-.668h4.238a2,2,0,0,1,2.272,2.253Z" transform="translate(237.815 0.56)"/>
    <path id="路径_1594" data-name="路径 1594" d="M690.437,530.715q-1.241-1.125-3.106-2.56a30.685,30.685,0,0,0-4.238-2.71,28.428,28.428,0,0,0-5.221-2.155,21.042,21.042,0,0,0-6.151-.867,23.312,23.312,0,0,0-7.5,1.072,15.51,15.51,0,0,0-5.168,2.817,11.287,11.287,0,0,0-3,3.944,10.812,10.812,0,0,0-.985,4.455,6.864,6.864,0,0,0,1.6,4.506,13.511,13.511,0,0,0,4.237,3.329,34.861,34.861,0,0,0,5.944,2.4q3.305,1.025,6.614,1.951,4.659,1.227,9.464,2.71a41.124,41.124,0,0,1,8.784,3.842,21.518,21.518,0,0,1,6.516,5.834,14.81,14.81,0,0,1,2.529,8.913,21.326,21.326,0,0,1-2.272,9.936,22.676,22.676,0,0,1-6.153,7.472,27.8,27.8,0,0,1-9.147,4.715,38.226,38.226,0,0,1-11.374,1.638,37.529,37.529,0,0,1-15.349-3.227,31.179,31.179,0,0,1-12.253-9.677,3.449,3.449,0,0,1-.828-1.843,2.047,2.047,0,0,1,.93-1.638l3.313-2.77a2.642,2.642,0,0,1,1.549-.511,2,2,0,0,1,1.393.667l.881.875a27.076,27.076,0,0,0,5.118,4.143,37.913,37.913,0,0,0,5.684,2.974,36.3,36.3,0,0,0,5.428,1.788,19.638,19.638,0,0,0,4.442.615,28.174,28.174,0,0,0,6.723-.867,22.323,22.323,0,0,0,6.407-2.667,15.43,15.43,0,0,0,4.76-4.553,11.313,11.313,0,0,0,1.861-6.455,7.953,7.953,0,0,0-1.758-5.275,15.41,15.41,0,0,0-4.655-3.632,33.887,33.887,0,0,0-6.668-2.614q-3.769-1.075-7.8-2.1-12.819-3.274-19.124-7.835a14.438,14.438,0,0,1-6.311-12.338,19.711,19.711,0,0,1,1.866-8.6,19.083,19.083,0,0,1,5.373-6.709,25.51,25.51,0,0,1,8.425-4.354,36.448,36.448,0,0,1,10.905-1.537,32.175,32.175,0,0,1,12.614,2.716,35.138,35.138,0,0,1,10.856,7.016c.414.48.844.97,1.295,1.488a2.218,2.218,0,0,1,.67,1.38,2.344,2.344,0,0,1-.828,1.636l-3.1,2.97a2.012,2.012,0,0,1-1.342.716A2.835,2.835,0,0,1,690.437,530.715Z" transform="translate(264.436)"/>
    <g id="组_1188" data-name="组 1188" transform="translate(752.783 514.953)">
      <path id="路径_1595" data-name="路径 1595" d="M616.208,581.458H572.783V523.3H615.8a2.2,2.2,0,0,0,1.756-.716,2.437,2.437,0,0,0,.621-1.638v-4.2a2.049,2.049,0,0,0-2.274-2.354h-49.73q-2.276,0-2.273,2.354V588.22c0,1.432.755,2.149,2.273,2.149h50.144a2,2,0,0,0,2.272-2.253v-4.2A2.138,2.138,0,0,0,616.208,581.458Z" transform="translate(-563.896 -514.393)"/>
      <path id="路径_1596" data-name="路径 1596" d="M599.715,539.542a2.043,2.043,0,0,0,1.707-.723,2.612,2.612,0,0,0,.566-1.654v-4.237a2.258,2.258,0,0,0-.668-1.811,2.435,2.435,0,0,0-1.6-.566h-28.31v8.991Z" transform="translate(-556.606 -499.052)"/>
    </g>
  </g>
</svg>
