<svg xmlns="http://www.w3.org/2000/svg" width="138.562" height="30" viewBox="0 0 138.562 30">
  <g id="_2-0-GENESIS" data-name="2-0-GENESIS" transform="translate(-304.177 -389.389)">
    <path id="路径_345" data-name="路径 345" d="M325.308,414.218v-7.265a.763.763,0,0,1,.864-.863h1.649a.987.987,0,0,1,.628.215.775.775,0,0,1,.277.648v8.718a.865.865,0,0,1-.12.412,1.2,1.2,0,0,1-.429.412l-.079.079a13.971,13.971,0,0,1-4.106,2.1,15.743,15.743,0,0,1-4.85.727,14.575,14.575,0,0,1-5.834-1.178,14.958,14.958,0,0,1-7.953-7.952,15.022,15.022,0,0,1,0-11.663,15.1,15.1,0,0,1,7.993-7.991,14.87,14.87,0,0,1,11.212-.156q.512.2,1.2.511t1.317.668a5.284,5.284,0,0,1,1.059.765,1.134,1.134,0,0,1,.435.766.828.828,0,0,1-.12.432l-.863,1.414a.785.785,0,0,1-.668.471,1.107,1.107,0,0,1-.746-.314,13.28,13.28,0,0,0-3.24-1.649,11.136,11.136,0,0,0-3.711-.627,11.327,11.327,0,0,0-4.695.962,11.566,11.566,0,0,0-3.672,2.572,11.93,11.93,0,0,0-2.395,3.691,11.241,11.241,0,0,0-.864,4.359,11.035,11.035,0,0,0,.922,4.5,11.8,11.8,0,0,0,2.513,3.672,11.635,11.635,0,0,0,3.7,2.455,11.376,11.376,0,0,0,4.454.883,10.92,10.92,0,0,0,3.654-.569A9.872,9.872,0,0,0,325.308,414.218Z" transform="translate(0 -0.013)" fill="#fff"/>
    <path id="路径_346" data-name="路径 346" d="M373.948,419.083H372.1a.962.962,0,0,1-.744-.353L344.98,395.209v14.549c0,.575-.3.863-.9.863h-1.611a.763.763,0,0,1-.863-.863V390.85a.917.917,0,0,1,.236-.647.815.815,0,0,1,.628-.256h2.16a.865.865,0,0,1,.746.392l26.1,22.932V390.693a.792.792,0,0,1,.866-.746h1.611a1.021,1.021,0,0,1,.649.236.769.769,0,0,1,.293.627v27.409Q374.889,419.082,373.948,419.083Z" transform="translate(-9.136 -0.136)" fill="#fff"/>
    <path id="路径_347" data-name="路径 347" d="M434.609,395.868q-.472-.431-1.178-.981a11.825,11.825,0,0,0-1.61-1.04,10.919,10.919,0,0,0-1.982-.826,7.935,7.935,0,0,0-2.339-.333,8.783,8.783,0,0,0-2.848.412,5.842,5.842,0,0,0-1.963,1.08,4.33,4.33,0,0,0-1.141,1.512,4.2,4.2,0,0,0-.372,1.708,2.651,2.651,0,0,0,.609,1.729,5.155,5.155,0,0,0,1.61,1.275,13.223,13.223,0,0,0,2.259.922q1.256.393,2.515.747,1.767.472,3.591,1.04a15.444,15.444,0,0,1,3.34,1.473,8.177,8.177,0,0,1,2.476,2.237,5.711,5.711,0,0,1,.963,3.417,8.262,8.262,0,0,1-.863,3.808,8.716,8.716,0,0,1-2.339,2.867,10.542,10.542,0,0,1-3.476,1.807,14.356,14.356,0,0,1-4.319.628,14.153,14.153,0,0,1-5.834-1.237,11.868,11.868,0,0,1-4.655-3.711,1.332,1.332,0,0,1-.315-.707.791.791,0,0,1,.355-.628l1.257-1.061a.993.993,0,0,1,.588-.2.758.758,0,0,1,.532.255c.169.172.281.282.333.335a10.381,10.381,0,0,0,1.944,1.589,14.18,14.18,0,0,0,2.159,1.14,13.639,13.639,0,0,0,2.063.686,7.4,7.4,0,0,0,1.688.236,10.553,10.553,0,0,0,2.554-.334,8.365,8.365,0,0,0,2.435-1.021,5.874,5.874,0,0,0,1.8-1.747,4.354,4.354,0,0,0,.709-2.473,3.073,3.073,0,0,0-.667-2.023,5.86,5.86,0,0,0-1.769-1.393,12.81,12.81,0,0,0-2.533-1q-1.433-.413-2.963-.805a21.871,21.871,0,0,1-7.267-3,5.552,5.552,0,0,1-2.395-4.732,7.613,7.613,0,0,1,.706-3.3,7.29,7.29,0,0,1,2.042-2.572,9.629,9.629,0,0,1,3.2-1.669,13.741,13.741,0,0,1,4.143-.589,12.157,12.157,0,0,1,4.795,1.04,13.344,13.344,0,0,1,4.122,2.69c.157.184.32.373.489.57a.851.851,0,0,1,.256.53.9.9,0,0,1-.314.628l-1.178,1.138a.765.765,0,0,1-.51.274A1.082,1.082,0,0,1,434.609,395.868Z" transform="translate(-27.474)" fill="#fff"/>
    <path id="路径_348" data-name="路径 348" d="M476.514,395.868q-.471-.431-1.18-.981a11.682,11.682,0,0,0-1.61-1.04,10.866,10.866,0,0,0-1.983-.826,7.911,7.911,0,0,0-2.337-.333,8.792,8.792,0,0,0-2.848.412,5.841,5.841,0,0,0-1.963,1.08,4.314,4.314,0,0,0-1.139,1.512,4.17,4.17,0,0,0-.374,1.708,2.647,2.647,0,0,0,.609,1.729A5.143,5.143,0,0,0,465.3,400.4a13.172,13.172,0,0,0,2.259.922q1.256.393,2.513.747,1.77.472,3.6,1.04A15.473,15.473,0,0,1,477,404.586a8.176,8.176,0,0,1,2.476,2.237,5.711,5.711,0,0,1,.961,3.417,8.234,8.234,0,0,1-.864,3.808,8.683,8.683,0,0,1-2.337,2.867,10.542,10.542,0,0,1-3.476,1.807,14.359,14.359,0,0,1-4.321.628,14.152,14.152,0,0,1-5.832-1.237,11.875,11.875,0,0,1-4.655-3.711,1.335,1.335,0,0,1-.314-.707.79.79,0,0,1,.353-.628l1.259-1.061a.993.993,0,0,1,.588-.2.754.754,0,0,1,.529.255l.335.335a10.313,10.313,0,0,0,1.945,1.589,14.215,14.215,0,0,0,2.16,1.14,13.623,13.623,0,0,0,2.061.686,7.406,7.406,0,0,0,1.688.236,10.553,10.553,0,0,0,2.554-.334,8.373,8.373,0,0,0,2.435-1.021,5.892,5.892,0,0,0,1.808-1.747,4.358,4.358,0,0,0,.706-2.473,3.069,3.069,0,0,0-.667-2.023,5.869,5.869,0,0,0-1.769-1.393,12.866,12.866,0,0,0-2.533-1q-1.432-.413-2.966-.805a21.884,21.884,0,0,1-7.265-3,5.555,5.555,0,0,1-2.4-4.732,7.614,7.614,0,0,1,.709-3.3,7.291,7.291,0,0,1,2.042-2.572,9.645,9.645,0,0,1,3.2-1.669,13.727,13.727,0,0,1,4.143-.589,12.144,12.144,0,0,1,4.792,1.04,13.316,13.316,0,0,1,4.124,2.69c.157.184.321.373.492.57a.86.86,0,0,1,.255.53.905.905,0,0,1-.315.628l-1.177,1.138a.764.764,0,0,1-.51.274A1.076,1.076,0,0,1,476.514,395.868Z" transform="translate(-37.702)" fill="#fff"/>
    <path id="路径_349" data-name="路径 349" d="M341.6,423.985V427.4h17.889a.774.774,0,0,0,.645-.274.987.987,0,0,0,.217-.628v-1.611a.855.855,0,0,0-.255-.687.925.925,0,0,0-.611-.216H341.6Z" transform="translate(-9.135 -8.444)" fill="#ffaa01"/>
    <path id="路径_350" data-name="路径 350" d="M341.6,414.19v3.416h11.54a.777.777,0,0,0,.646-.274.988.988,0,0,0,.217-.628v-1.611a.851.851,0,0,0-.255-.687.926.926,0,0,0-.611-.216H341.6Z" transform="translate(-9.135 -6.053)" fill="#fff"/>
    <path id="路径_351" data-name="路径 351" d="M388.254,423.985V427.4h17.888a.772.772,0,0,0,.645-.274A.982.982,0,0,0,407,426.5v-1.611a.855.855,0,0,0-.254-.687.927.927,0,0,0-.612-.216H388.254Z" transform="translate(-20.521 -8.444)" fill="#fff"/>
    <path id="路径_352" data-name="路径 352" d="M388.254,389.947v3.416h17.888a.774.774,0,0,0,.645-.274.984.984,0,0,0,.217-.628V390.85a.853.853,0,0,0-.254-.687.928.928,0,0,0-.612-.216H388.254Z" transform="translate(-20.521 -0.136)" fill="#fff"/>
    <path id="路径_353" data-name="路径 353" d="M388.254,406.959v3.416h11.54a.775.775,0,0,0,.645-.274.986.986,0,0,0,.217-.628v-1.611a.851.851,0,0,0-.255-.687.926.926,0,0,0-.611-.216H388.254Z" transform="translate(-20.52 -4.288)" fill="#ffaa01"/>
    <path id="路径_354" data-name="路径 354" d="M445.734,398.273l9.94,13.223a.764.764,0,0,1-.17,1.21l-1.316.992a.763.763,0,0,1-1.21-.17l-9.749-13.012c-.346-.46-.274-.789.17-1.21l1.125-1.2C445.013,397.628,445.387,397.813,445.734,398.273Z" transform="translate(-33.89 -2.06)" fill="#ffaa01"/>
  </g>
</svg>
