<svg xmlns="http://www.w3.org/2000/svg" width="230.031" height="30" viewBox="0 0 230.031 30">
  <g id="_2-0-STEM_CELLS" data-name="2-0-STEM CELLS" transform="translate(-365.207 -513.816)">
    <path id="路径_1585" data-name="路径 1585" d="M383.24,520.295q-.476-.431-1.189-.981a11.815,11.815,0,0,0-1.625-1.039,10.956,10.956,0,0,0-2-.826,8.083,8.083,0,0,0-2.358-.332,8.931,8.931,0,0,0-2.873.411,5.928,5.928,0,0,0-1.982,1.08,4.359,4.359,0,0,0-1.15,1.512,4.167,4.167,0,0,0-.376,1.708,2.636,2.636,0,0,0,.615,1.728,5.18,5.18,0,0,0,1.624,1.276,13.39,13.39,0,0,0,2.279.921q1.268.393,2.537.748,1.783.47,3.626,1.039a15.745,15.745,0,0,1,3.369,1.473,8.242,8.242,0,0,1,2.5,2.237,5.668,5.668,0,0,1,.972,3.417,8.185,8.185,0,0,1-.872,3.809,8.718,8.718,0,0,1-2.358,2.865,10.665,10.665,0,0,1-3.508,1.808,14.65,14.65,0,0,1-4.359.628,14.388,14.388,0,0,1-5.886-1.237,11.951,11.951,0,0,1-4.7-3.71,1.315,1.315,0,0,1-.317-.707.785.785,0,0,1,.357-.628l1.268-1.062a1.017,1.017,0,0,1,.595-.2.765.765,0,0,1,.535.256c.172.172.284.281.337.335a10.429,10.429,0,0,0,1.962,1.589,14.5,14.5,0,0,0,2.179,1.14,13.857,13.857,0,0,0,2.081.686,7.53,7.53,0,0,0,1.7.236,10.809,10.809,0,0,0,2.577-.332,8.563,8.563,0,0,0,2.457-1.023,5.925,5.925,0,0,0,1.822-1.746,4.338,4.338,0,0,0,.714-2.475,3.046,3.046,0,0,0-.675-2.023,5.906,5.906,0,0,0-1.782-1.392,13.013,13.013,0,0,0-2.557-1q-1.447-.412-2.992-.805a22.146,22.146,0,0,1-7.332-3,5.534,5.534,0,0,1-2.418-4.73,7.546,7.546,0,0,1,.713-3.3,7.312,7.312,0,0,1,2.061-2.572,9.761,9.761,0,0,1,3.229-1.669,13.983,13.983,0,0,1,4.182-.589,12.346,12.346,0,0,1,4.836,1.041,13.486,13.486,0,0,1,4.161,2.69c.158.184.323.372.495.57a.848.848,0,0,1,.258.529.9.9,0,0,1-.317.627l-1.189,1.139a.771.771,0,0,1-.515.275A1.092,1.092,0,0,1,383.24,520.295Z" fill="#fff"/>
    <path id="路径_1586" data-name="路径 1586" d="M474.045,542.265H472.5c-.319,0-.582-.237-.794-.709l-9.115-21.237-2.181,22.338c0,.574-.3.864-.911.864h-1.664a.767.767,0,0,1-.871-.864q.713-6.911,1.426-13.7t1.427-13.7a.78.78,0,0,1,.277-.628,1.006,1.006,0,0,1,.673-.236h2.459a.9.9,0,0,1,.871.745l9.2,21.906q2.3-5.495,4.6-10.954t4.6-10.952c.134-.5.411-.745.834-.745h2.575a.828.828,0,0,1,.634.256.859.859,0,0,1,.238.608l2.894,27.4c0,.574-.3.864-.911.864h-1.666a.767.767,0,0,1-.871-.864l-2.219-22.338-9.116,21.237C474.691,542.028,474.414,542.265,474.045,542.265Z" transform="translate(-23.177 -0.141)" fill="#fff"/>
    <path id="路径_1587" data-name="路径 1587" d="M548.965,516.815c.342.209.515.432.515.668a.745.745,0,0,1-.1.371c-.066.118-.125.217-.177.3l-.834,1.3c-.238.314-.461.471-.674.471-.079-.025-.177-.058-.3-.1a1.813,1.813,0,0,1-.416-.217,13.028,13.028,0,0,0-3.288-1.669,11.133,11.133,0,0,0-3.608-.607,11.729,11.729,0,0,0-8.5,3.475,11.553,11.553,0,0,0-3.309,8.107,10.811,10.811,0,0,0,.97,4.555,11.842,11.842,0,0,0,2.6,3.671,12.16,12.16,0,0,0,3.748,2.436,11.473,11.473,0,0,0,7.39.49,13.127,13.127,0,0,0,3.25-1.452,3.936,3.936,0,0,0,.793-.531,1.157,1.157,0,0,1,.673-.332.861.861,0,0,1,.674.471l.913,1.491a1.381,1.381,0,0,1,.119.549.73.73,0,0,1-.436.668,15.656,15.656,0,0,1-4.162,2.14,15.116,15.116,0,0,1-4.875.766,14.83,14.83,0,0,1-5.887-1.177,15.336,15.336,0,0,1-4.8-3.2,15.151,15.151,0,0,1-3.23-4.751,14.9,14.9,0,0,1,0-11.664,15.206,15.206,0,0,1,3.25-4.77,15.367,15.367,0,0,1,4.815-3.22,15.283,15.283,0,0,1,10.662-.411A15.552,15.552,0,0,1,548.965,516.815Z" transform="translate(-40.268 -0.013)" fill="#fff"/>
    <g id="组_1187" data-name="组 1187" transform="translate(404.679 514.252)">
      <path id="路径_1588" data-name="路径 1588" d="M426.441,517.842h16.488a.84.84,0,0,0,.674-.277.952.952,0,0,0,.237-.634V515.3q0-.91-.871-.911h-24.1q-.873,0-.873.911v2.538Z" transform="translate(-418 -514.393)" fill="#fff"/>
      <path id="路径_1589" data-name="路径 1589" d="M431.642,530.551H424.66V534H442.7a.783.783,0,0,0,.655-.277,1,1,0,0,0,.218-.634v-1.624a.866.866,0,0,0-.257-.694.934.934,0,0,0-.616-.217Z" transform="translate(-419.628 -518.475)" fill="#ffaa01"/>
      <path id="路径_1590" data-name="路径 1590" d="M441.693,548.751H424.66v2.617q0,.832.873.832h16.2a.771.771,0,0,0,.872-.872V549.7Q442.6,548.751,441.693,548.751Z" transform="translate(-419.628 -523.072)" fill="#fff"/>
    </g>
    <path id="路径_1591" data-name="路径 1591" d="M414.8,514.393H397.577c-.609,0-.912.289-.912.864v1.61a.819.819,0,0,0,.912.942h13.77v24.848a.81.81,0,0,0,.258.628.93.93,0,0,0,.654.236h1.625a.873.873,0,0,0,.674-.256.861.861,0,0,0,.237-.608V514.393Z" transform="translate(-7.689 -0.141)" fill="#fff"/>
    <path id="路径_1592" data-name="路径 1592" d="M608.32,540.183h-7.2V515.257a.767.767,0,0,0-.871-.864h-1.624a.876.876,0,0,0-.673.256.859.859,0,0,0-.238.608v27.4a.768.768,0,0,0,.872.864h9.73Z" transform="translate(-58.541 -0.141)" fill="#fff"/>
    <path id="路径_1593" data-name="路径 1593" d="M619.382,540.183H633.69a.876.876,0,0,1,.614.236.855.855,0,0,1,.258.667v1.571a.859.859,0,0,1-.238.608.822.822,0,0,1-.634.256H616.847a.768.768,0,0,1-.872-.864v-27.4a.859.859,0,0,1,.238-.608.876.876,0,0,1,.673-.256h1.625a.767.767,0,0,1,.871.864Z" transform="translate(-63.45 -0.141)" fill="#fff"/>
    <path id="路径_1594" data-name="路径 1594" d="M661.429,520.295q-.476-.431-1.191-.981a11.763,11.763,0,0,0-1.625-1.039,10.9,10.9,0,0,0-2-.826,8.067,8.067,0,0,0-2.358-.332,8.938,8.938,0,0,0-2.873.411,5.947,5.947,0,0,0-1.981,1.08,4.327,4.327,0,0,0-1.148,1.512,4.145,4.145,0,0,0-.378,1.708,2.632,2.632,0,0,0,.615,1.728,5.18,5.18,0,0,0,1.625,1.276,13.361,13.361,0,0,0,2.279.921q1.267.393,2.536.748,1.786.47,3.628,1.039a15.766,15.766,0,0,1,3.368,1.473,8.249,8.249,0,0,1,2.5,2.237,5.678,5.678,0,0,1,.969,3.417,8.176,8.176,0,0,1-.871,3.809,8.693,8.693,0,0,1-2.359,2.865,10.657,10.657,0,0,1-3.507,1.808,14.654,14.654,0,0,1-4.36.628,14.387,14.387,0,0,1-5.884-1.237,11.953,11.953,0,0,1-4.7-3.71,1.322,1.322,0,0,1-.317-.707.785.785,0,0,1,.357-.628l1.27-1.062a1.013,1.013,0,0,1,.594-.2.767.767,0,0,1,.534.256l.338.335a10.379,10.379,0,0,0,1.962,1.589,14.534,14.534,0,0,0,2.179,1.14,13.915,13.915,0,0,0,2.081.686,7.529,7.529,0,0,0,1.7.236,10.8,10.8,0,0,0,2.577-.332,8.559,8.559,0,0,0,2.456-1.023,5.917,5.917,0,0,0,1.825-1.746,4.337,4.337,0,0,0,.713-2.475,3.049,3.049,0,0,0-.674-2.023,5.908,5.908,0,0,0-1.785-1.392,12.988,12.988,0,0,0-2.556-1q-1.445-.412-2.992-.805a22.154,22.154,0,0,1-7.331-3,5.535,5.535,0,0,1-2.419-4.73,7.557,7.557,0,0,1,.716-3.3,7.316,7.316,0,0,1,2.06-2.572,9.779,9.779,0,0,1,3.23-1.669,13.973,13.973,0,0,1,4.181-.589,12.334,12.334,0,0,1,4.836,1.041,13.471,13.471,0,0,1,4.162,2.69c.159.184.323.372.5.57a.851.851,0,0,1,.257.529.9.9,0,0,1-.317.627l-1.189,1.139a.771.771,0,0,1-.515.275A1.087,1.087,0,0,1,661.429,520.295Z" transform="translate(-70.152)" fill="#fff"/>
    <g id="组_1188" data-name="组 1188" transform="translate(513.799 514.252)">
      <path id="路径_1595" data-name="路径 1595" d="M583.951,540.1H567.3v-22.3h16.49a.843.843,0,0,0,.673-.275.934.934,0,0,0,.238-.628V515.3a.785.785,0,0,0-.872-.9H564.767q-.873,0-.871.9v27.4c0,.549.289.824.871.824h19.223a.768.768,0,0,0,.871-.864v-1.61A.82.82,0,0,0,583.951,540.1Z" transform="translate(-563.896 -514.393)" fill="#fff"/>
      <path id="路径_1596" data-name="路径 1596" d="M582.258,534a.783.783,0,0,0,.654-.277,1,1,0,0,0,.217-.634v-1.624a.866.866,0,0,0-.256-.694.933.933,0,0,0-.615-.217H571.405V534Z" transform="translate(-565.731 -518.475)" fill="#ffaa01"/>
    </g>
  </g>
</svg>
