<svg xmlns="http://www.w3.org/2000/svg" width="80" height="80" viewBox="0 0 80 80">
  <g id="_2-1-专业" data-name="2-1-专业" transform="translate(21 20)">
    <g id="椭圆_76" data-name="椭圆 76" transform="translate(-21 -20)" fill="#fff" stroke="#508cff" stroke-width="1.5">
      <circle cx="40" cy="40" r="40" stroke="none"/>
      <circle cx="40" cy="40" r="39.25" fill="none"/>
    </g>
    <path id="路径_409" data-name="路径 409" d="M124.059,77.206l-5.162.735-3.26,4.123a1.944,1.944,0,0,1-2.656-.711l-4.909-8.5a15.256,15.256,0,0,1-2.158.17,15.456,15.456,0,0,1-2.245-.182l-4.923,8.526a1.918,1.918,0,0,1-2.62.7L92.914,78l-5.091-.726a1.918,1.918,0,0,1-.7-2.62l5.443-9.428a15.341,15.341,0,1,1,26.761-.106l5.444,9.429a1.945,1.945,0,0,1-.71,2.659ZM90.093,75.263l4.261.245,2.382,3.59,4.027-6.979A15.35,15.35,0,0,1,94.4,67.8Zm15.822-30.046a12.465,12.465,0,1,0,12.465,12.465,12.465,12.465,0,0,0-12.465-12.465ZM117.477,67.75a15.341,15.341,0,0,1-6.449,4.387l4,6.923,2.416-3.644,4.32-.249Z" transform="translate(-86.863 -42.325)" fill="#508cff"/>
    <path id="路径_410" data-name="路径 410" d="M328.8,209.593a8.8,8.8,0,1,1,8.8-8.8A8.8,8.8,0,0,1,328.8,209.593Zm-.03-14.691a5.864,5.864,0,1,0,5.864,5.864A5.864,5.864,0,0,0,328.766,194.9Z" transform="translate(-309.689 -185.372)" fill="#ffaa01"/>
  </g>
</svg>
