<svg xmlns="http://www.w3.org/2000/svg" width="80" height="80" viewBox="0 0 80 80">
  <g id="_2-1-敬畏" data-name="2-1-敬畏" transform="translate(20 20)">
    <g id="椭圆_77" data-name="椭圆 77" transform="translate(-20 -20)" fill="#fff" stroke="#508cff" stroke-width="1.5">
      <circle cx="40" cy="40" r="40" stroke="none"/>
      <circle cx="40" cy="40" r="39.25" fill="none"/>
    </g>
    <path id="路径_407" data-name="路径 407" d="M123.019,124.829H87.153a4.223,4.223,0,0,1-2.1-4c0-3.7,2.057-7.052,5.4-9.55a19.589,19.589,0,0,1,5.884-3.081,2.485,2.485,0,0,0,1.11-4.39,15.732,15.732,0,0,1-2.478-3.56,10.994,10.994,0,1,1,19.988.3,12.936,12.936,0,0,1-2.361,3.307,2.484,2.484,0,0,0,1.058,4.319,17.31,17.31,0,0,1,5.96,3.1c3.356,2.5,5.41,5.86,5.41,9.557a4.284,4.284,0,0,1-2.012,4Zm-.986-6c-.769-2.45-4.127-6.052-9.682-7.863,0,0-3.685-1.939-3.654-5.192a6.457,6.457,0,0,1,1.682-3.989,8,8,0,1,0-10.623.045,5.529,5.529,0,0,1,1.633,3.913c0,3.279-3.842,5.3-3.842,5.3-5.53,1.864-8.912,5.476-9.494,7.788a2.379,2.379,0,0,0,2.1,3h29.874C121.332,121.418,122.622,120.713,122.032,118.833Z" transform="translate(-85.04 -84.829)" fill="#508cff"/>
    <path id="路径_408" data-name="路径 408" d="M384.084,340.923a8.019,8.019,0,0,0,4.147,1.528,10.907,10.907,0,0,0,4.833-1.528,1.219,1.219,0,0,1,1.5,1.5,3.3,3.3,0,0,1-1.5,1.5,12.3,12.3,0,0,1-4.739,1.216,9.684,9.684,0,0,1-4.24-1.216,3.353,3.353,0,0,1-1.5-1.5,1.169,1.169,0,0,1,1.5-1.5Z" transform="translate(-368.572 -328.857)" fill="#ffaa01"/>
  </g>
</svg>
