<svg xmlns="http://www.w3.org/2000/svg" width="80" height="80" viewBox="0 0 80 80">
  <g id="_2-1-创新" data-name="2-1-创新" transform="translate(19 19)">
    <g id="椭圆_78" data-name="椭圆 78" transform="translate(-19 -19)" fill="#fff" stroke="#508cff" stroke-width="1.5">
      <circle cx="40" cy="40" r="40" stroke="none"/>
      <circle cx="40" cy="40" r="39.25" fill="none"/>
    </g>
    <path id="路径_403" data-name="路径 403" d="M232.843,175.3a1.419,1.419,0,0,1-1.348-1.068,1.541,1.541,0,0,1,.963-1.845l13-3.884a1.523,1.523,0,0,1,1.829.971,1.541,1.541,0,0,1-.963,1.845l-13,3.884a1.039,1.039,0,0,1-.481.1Zm14.731-12.33a1.541,1.541,0,0,1-1.059-.485l-8.088-9.32a1.506,1.506,0,0,1,.1-2.039,1.476,1.476,0,0,1,2.022.1l8.088,9.32a1.506,1.506,0,0,1-.1,2.039A1.231,1.231,0,0,1,247.574,162.966Zm-5.488-15.049a1.536,1.536,0,0,1-1.444-1.165A1.436,1.436,0,0,1,241.8,145.1l12.9-2.427a1.428,1.428,0,0,1,.481,2.816l-12.806,2.33a.352.352,0,0,1-.289.1Z" transform="translate(-223.116 -138.485)" fill="#508cff"/>
    <path id="路径_404" data-name="路径 404" d="M741.488,64.308a5.488,5.488,0,1,1,5.488-5.488A5.536,5.536,0,0,1,741.488,64.308Zm0-7.982a2.494,2.494,0,1,0,2.494,2.494A2.47,2.47,0,0,0,741.488,56.326Z" transform="translate(-704.975 -53.333)" fill="#ffaa01"/>
    <path id="路径_405" data-name="路径 405" d="M201.118,113.875a6.806,6.806,0,1,1,6.984-6.8A6.853,6.853,0,0,1,201.118,113.875Zm0-10.692a3.889,3.889,0,1,0,3.991,3.888A3.952,3.952,0,0,0,201.118,103.183Zm16.562,31.2a8.265,8.265,0,1,1,8.481-8.262A8.367,8.367,0,0,1,217.68,134.385Zm0-13.608a5.348,5.348,0,1,0,5.488,5.346A5.466,5.466,0,0,0,217.68,120.777Z" transform="translate(-188.451 -98.072)" fill="#508cff"/>
    <path id="路径_406" data-name="路径 406" d="M58.822,746.975a5.488,5.488,0,1,1,5.488-5.488A5.536,5.536,0,0,1,58.822,746.975Zm0-7.982a2.494,2.494,0,1,0,2.494,2.494A2.47,2.47,0,0,0,58.822,738.993Z" transform="translate(-53.334 -704.975)" fill="#ffaa01"/>
  </g>
</svg>
