<svg xmlns="http://www.w3.org/2000/svg" width="766.771" height="100" viewBox="0 0 766.771 100">
  <g id="_2-2-STEM_CELLS" data-name="2-2-STEM CELLS" transform="translate(-365.207 -513.816)" opacity="0.05">
    <path id="路径_1585" data-name="路径 1585" d="M425.65,535.412q-1.6-1.437-3.986-3.271a39.624,39.624,0,0,0-5.448-3.463,36.835,36.835,0,0,0-6.706-2.754,27.231,27.231,0,0,0-7.9-1.108,30.092,30.092,0,0,0-9.632,1.37,19.9,19.9,0,0,0-6.643,3.6,14.538,14.538,0,0,0-3.855,5.04,13.824,13.824,0,0,0-1.261,5.694,8.756,8.756,0,0,0,2.062,5.759,17.351,17.351,0,0,0,5.445,4.255,45.02,45.02,0,0,0,7.639,3.071q4.251,1.31,8.5,2.493,5.976,1.568,12.154,3.463a52.933,52.933,0,0,1,11.293,4.91,27.578,27.578,0,0,1,8.368,7.456q3.256,4.454,3.257,11.39a27.159,27.159,0,0,1-2.923,12.7,29.094,29.094,0,0,1-7.9,9.549,35.821,35.821,0,0,1-11.759,6.026,49.362,49.362,0,0,1-14.611,2.093,48.457,48.457,0,0,1-19.729-4.124,40.023,40.023,0,0,1-15.743-12.366,4.37,4.37,0,0,1-1.061-2.356,2.612,2.612,0,0,1,1.2-2.094l4.25-3.54a3.42,3.42,0,0,1,1.993-.654,2.571,2.571,0,0,1,1.793.853c.575.574.952.938,1.13,1.118a34.917,34.917,0,0,0,6.577,5.295,48.689,48.689,0,0,0,7.3,3.8,46.638,46.638,0,0,0,6.975,2.285,25.376,25.376,0,0,0,5.714.786,36.424,36.424,0,0,0,8.636-1.108,28.792,28.792,0,0,0,8.236-3.408,19.814,19.814,0,0,0,6.109-5.819,14.4,14.4,0,0,0,2.393-8.249,10.116,10.116,0,0,0-2.262-6.742,19.78,19.78,0,0,0-5.974-4.641,43.764,43.764,0,0,0-8.57-3.341q-4.851-1.373-10.029-2.685Q384.2,562.509,376.1,556.68a18.416,18.416,0,0,1-8.1-15.767,25.035,25.035,0,0,1,2.391-11,24.4,24.4,0,0,1,6.909-8.573,32.78,32.78,0,0,1,10.824-5.564,47.109,47.109,0,0,1,14.018-1.964,41.577,41.577,0,0,1,16.209,3.471,45.229,45.229,0,0,1,13.947,8.965c.529.614,1.081,1.24,1.659,1.9a2.82,2.82,0,0,1,.864,1.764,2.979,2.979,0,0,1-1.064,2.091l-3.984,3.8a2.59,2.59,0,0,1-1.725.916A3.665,3.665,0,0,1,425.65,535.412Z" transform="translate(0 0)"/>
    <path id="路径_1586" data-name="路径 1586" d="M514.219,607.285H509.04c-1.069,0-1.95-.79-2.662-2.362l-30.551-70.777-7.312,74.446c0,1.913-1.021,2.878-3.054,2.878h-5.577c-1.95,0-2.92-.965-2.92-2.878q2.39-23.034,4.779-45.662t4.781-45.659a2.592,2.592,0,0,1,.929-2.092,3.385,3.385,0,0,1,2.257-.786h8.241c1.411,0,2.391.833,2.92,2.484L511.7,589.884q7.693-18.313,15.411-36.506,7.693-18.182,15.4-36.5c.448-1.651,1.378-2.484,2.8-2.484h8.631a2.782,2.782,0,0,1,2.125.853,2.853,2.853,0,0,1,.8,2.025l9.7,91.321c0,1.913-1.021,2.878-3.054,2.878h-5.584c-1.95,0-2.92-.965-2.92-2.878l-7.438-74.446-30.556,70.777C516.384,606.495,515.455,607.285,514.219,607.285Z" transform="translate(136.632 0.884)"/>
    <path id="路径_1587" data-name="路径 1587" d="M605.734,523.687c1.147.7,1.727,1.44,1.727,2.226a2.474,2.474,0,0,1-.337,1.238c-.223.394-.418.724-.593.985l-2.8,4.317c-.8,1.048-1.545,1.57-2.259,1.57-.266-.082-.592-.192-.993-.322a6.092,6.092,0,0,1-1.4-.724,43.764,43.764,0,0,0-11.022-5.564,37.5,37.5,0,0,0-12.093-2.023,39.426,39.426,0,0,0-28.495,11.582A38.4,38.4,0,0,0,536.386,564a35.868,35.868,0,0,0,3.252,15.183,39.477,39.477,0,0,0,8.7,12.236,40.784,40.784,0,0,0,12.562,8.119,38.656,38.656,0,0,0,24.769,1.632,44.129,44.129,0,0,0,10.9-4.841,13.208,13.208,0,0,0,2.657-1.769,3.889,3.889,0,0,1,2.257-1.108,2.886,2.886,0,0,1,2.259,1.57l3.059,4.97a4.582,4.582,0,0,1,.4,1.831,2.433,2.433,0,0,1-1.461,2.226,52.591,52.591,0,0,1-13.95,7.134,50.928,50.928,0,0,1-16.341,2.555,49.948,49.948,0,0,1-19.731-3.925,51.422,51.422,0,0,1-16.075-10.667,50.49,50.49,0,0,1-10.827-15.837,49.42,49.42,0,0,1,0-38.879,50.676,50.676,0,0,1,10.9-15.9,51.528,51.528,0,0,1,16.138-10.734,51.5,51.5,0,0,1,35.738-1.37A52.237,52.237,0,0,1,605.734,523.687Z" transform="translate(237.954 0.081)"/>
    <g id="组_1187" data-name="组 1187" transform="translate(496.689 515.277)">
      <path id="路径_1588" data-name="路径 1588" d="M446.292,525.955h55.267a2.816,2.816,0,0,0,2.259-.929,3.191,3.191,0,0,0,.8-2.125v-5.453q0-3.05-2.92-3.054H420.925q-2.925,0-2.925,3.054v8.507Z" transform="translate(-418 -514.393)"/>
      <path id="路径_1589" data-name="路径 1589" d="M448.064,530.551h-23.4V542.1h60.461a2.624,2.624,0,0,0,2.2-.929,3.343,3.343,0,0,0,.729-2.125v-5.445a2.9,2.9,0,0,0-.861-2.328,3.131,3.131,0,0,0-2.064-.727Z" transform="translate(-407.793 -490.334)"/>
      <path id="路径_1590" data-name="路径 1590" d="M481.753,548.751H424.66v8.773q0,2.788,2.925,2.788h54.3a2.586,2.586,0,0,0,2.923-2.923v-5.45Q484.807,548.753,481.753,548.751Z" transform="translate(-407.793 -463.235)"/>
    </g>
    <path id="路径_1591" data-name="路径 1591" d="M457.435,514.393H399.722c-2.041,0-3.057.963-3.057,2.878v5.367q0,3.139,3.057,3.14h46.157v82.814a2.69,2.69,0,0,0,.864,2.093,3.127,3.127,0,0,0,2.191.786h5.448a2.935,2.935,0,0,0,2.259-.853,2.862,2.862,0,0,0,.8-2.025v-94.2Z" transform="translate(48.213 0.884)"/>
    <path id="路径_1592" data-name="路径 1592" d="M633.256,600.347H609.138V517.271c0-1.916-.97-2.878-2.92-2.878h-5.445a2.945,2.945,0,0,0-2.256.853,2.853,2.853,0,0,0-.8,2.025v91.321c0,1.913.973,2.878,2.923,2.878h32.615Z" transform="translate(347.234 0.884)"/>
    <path id="路径_1593" data-name="路径 1593" d="M627.395,600.347h47.96a2.946,2.946,0,0,1,2.056.786,2.841,2.841,0,0,1,.866,2.222v5.237a2.853,2.853,0,0,1-.8,2.025,2.764,2.764,0,0,1-2.125.853H618.9c-1.95,0-2.923-.965-2.923-2.878V517.271a2.853,2.853,0,0,1,.8-2.025,2.946,2.946,0,0,1,2.257-.853h5.445c1.95,0,2.92.965,2.92,2.878Z" transform="translate(372.832 0.884)"/>
    <path id="路径_1594" data-name="路径 1594" d="M703.845,535.412q-1.6-1.437-3.991-3.271a39.45,39.45,0,0,0-5.445-3.463,36.641,36.641,0,0,0-6.709-2.754,27.179,27.179,0,0,0-7.9-1.108,30.113,30.113,0,0,0-9.632,1.37,19.967,19.967,0,0,0-6.641,3.6,14.434,14.434,0,0,0-3.85,5.04,13.752,13.752,0,0,0-1.266,5.694,8.742,8.742,0,0,0,2.062,5.759,17.348,17.348,0,0,0,5.445,4.255,44.921,44.921,0,0,0,7.638,3.071q4.247,1.31,8.5,2.493,5.987,1.568,12.161,3.463a53,53,0,0,1,11.288,4.91,27.593,27.593,0,0,1,8.373,7.456q3.248,4.454,3.249,11.39a27.131,27.131,0,0,1-2.92,12.7,29.016,29.016,0,0,1-7.907,9.549,35.8,35.8,0,0,1-11.754,6.026,49.372,49.372,0,0,1-14.616,2.093,48.451,48.451,0,0,1-19.724-4.124,40.029,40.029,0,0,1-15.745-12.366,4.4,4.4,0,0,1-1.064-2.356,2.612,2.612,0,0,1,1.2-2.094l4.257-3.54a3.407,3.407,0,0,1,1.991-.654,2.576,2.576,0,0,1,1.791.853l1.132,1.118a34.746,34.746,0,0,0,6.577,5.295,48.83,48.83,0,0,0,7.3,3.8,46.841,46.841,0,0,0,6.975,2.285,25.37,25.37,0,0,0,5.708.786,36.4,36.4,0,0,0,8.639-1.108,28.774,28.774,0,0,0,8.233-3.408,19.782,19.782,0,0,0,6.116-5.819A14.4,14.4,0,0,0,705.7,584.1a10.127,10.127,0,0,0-2.259-6.742,19.785,19.785,0,0,0-5.982-4.641,43.68,43.68,0,0,0-8.568-3.341q-4.844-1.373-10.029-2.685-16.472-4.184-24.574-10.013a18.42,18.42,0,0,1-8.11-15.767,25.071,25.071,0,0,1,2.4-11,24.41,24.41,0,0,1,6.9-8.573,32.84,32.84,0,0,1,10.827-5.564,47.076,47.076,0,0,1,14.013-1.964,41.54,41.54,0,0,1,16.208,3.471,45.177,45.177,0,0,1,13.95,8.965c.532.614,1.084,1.24,1.664,1.9a2.828,2.828,0,0,1,.861,1.764,2.989,2.989,0,0,1-1.063,2.091l-3.984,3.8a2.591,2.591,0,0,1-1.725.916A3.649,3.649,0,0,1,703.845,535.412Z" transform="translate(414.855 0)"/>
    <g id="组_1188" data-name="组 1188" transform="translate(860.237 515.277)">
      <path id="路径_1595" data-name="路径 1595" d="M631.117,600.085h-55.8V525.779h55.272a2.834,2.834,0,0,0,2.256-.915,3.1,3.1,0,0,0,.8-2.093V517.4c0-2-.98-3.008-2.923-3.008h-63.9c-1.95,0-2.92,1.005-2.92,3.008v91.324c0,1.83.97,2.746,2.92,2.746h64.435c1.943,0,2.92-.965,2.92-2.878v-5.367Q634.171,600.086,631.117,600.085Z" transform="translate(-563.896 -514.393)"/>
      <path id="路径_1596" data-name="路径 1596" d="M607.783,542.1a2.625,2.625,0,0,0,2.193-.929,3.356,3.356,0,0,0,.727-2.125v-5.445a2.9,2.9,0,0,0-.859-2.328,3.129,3.129,0,0,0-2.062-.727H571.405V542.1Z" transform="translate(-552.388 -490.334)"/>
    </g>
  </g>
</svg>
