<svg xmlns="http://www.w3.org/2000/svg" width="600" height="130" viewBox="0 0 600 130">
  <g id="_2-2-GENESIS" data-name="2-2-GENESIS" transform="translate(-304.177 -389.389)" opacity="0.05">
    <path id="路径_345" data-name="路径 345" d="M395.94,496.808v-31.48q0-3.739,3.75-3.741h7.161a4.291,4.291,0,0,1,2.729.934,3.354,3.354,0,0,1,1.2,2.807v37.78a3.74,3.74,0,0,1-.522,1.785,5.226,5.226,0,0,1-1.862,1.785l-.345.341a60.718,60.718,0,0,1-17.83,9.1,68.5,68.5,0,0,1-21.061,3.148,63.411,63.411,0,0,1-25.333-5.1,64.885,64.885,0,0,1-34.537-34.458,64.968,64.968,0,0,1,0-50.539A65.5,65.5,0,0,1,344,394.541a64.7,64.7,0,0,1,48.689-.678q2.221.85,5.2,2.215t5.72,2.893a22.942,22.942,0,0,1,4.6,3.315A4.91,4.91,0,0,1,410.1,405.6a3.584,3.584,0,0,1-.522,1.871l-3.75,6.129a3.41,3.41,0,0,1-2.9,2.041,4.813,4.813,0,0,1-3.241-1.363,57.724,57.724,0,0,0-14.07-7.148,48.455,48.455,0,0,0-16.116-2.719,49.281,49.281,0,0,0-20.388,4.17,50.229,50.229,0,0,0-15.945,11.144,51.683,51.683,0,0,0-10.4,16,48.621,48.621,0,0,0-3.753,18.888,47.73,47.73,0,0,0,4,19.481A51.114,51.114,0,0,0,333.933,490a50.532,50.532,0,0,0,16.047,10.636,49.493,49.493,0,0,0,19.343,3.826A47.513,47.513,0,0,0,385.189,502,42.9,42.9,0,0,0,395.94,496.808Z" transform="translate(0 0.119)"/>
    <path id="路径_346" data-name="路径 346" d="M482.059,516.194h-8.025a4.179,4.179,0,0,1-3.231-1.53L356.265,412.748V475.79c0,2.493-1.31,3.741-3.917,3.741h-6.994q-3.753,0-3.75-3.741V393.858a3.967,3.967,0,0,1,1.025-2.8,3.542,3.542,0,0,1,2.725-1.107h9.378a3.759,3.759,0,0,1,3.241,1.7L471.3,491.015V393.18a3.435,3.435,0,0,1,3.76-3.233h6.994a4.441,4.441,0,0,1,2.817,1.022,3.328,3.328,0,0,1,1.271,2.719V512.453Q486.147,516.192,482.059,516.194Z" transform="translate(84.968 1.274)"/>
    <path id="路径_347" data-name="路径 347" d="M494.343,417.463q-2.049-1.867-5.116-4.252a51.368,51.368,0,0,0-6.991-4.507,47.463,47.463,0,0,0-8.606-3.577,34.526,34.526,0,0,0-10.156-1.445,38.214,38.214,0,0,0-12.366,1.785,25.383,25.383,0,0,0-8.524,4.681,18.764,18.764,0,0,0-4.955,6.552,18.187,18.187,0,0,0-1.615,7.4,11.473,11.473,0,0,0,2.646,7.492,22.377,22.377,0,0,0,6.991,5.526,57.489,57.489,0,0,0,9.808,4q5.452,1.705,10.921,3.237,7.674,2.044,15.594,4.507a67.138,67.138,0,0,1,14.5,6.385,35.481,35.481,0,0,1,10.75,9.693q4.172,5.788,4.18,14.807a35.74,35.74,0,0,1-3.75,16.5A37.787,37.787,0,0,1,497.5,508.667a45.811,45.811,0,0,1-15.094,7.829,62.467,62.467,0,0,1-18.756,2.722,61.574,61.574,0,0,1-25.333-5.359A51.52,51.52,0,0,1,418.1,497.778a5.766,5.766,0,0,1-1.366-3.063,3.428,3.428,0,0,1,1.543-2.722l5.457-4.6a4.317,4.317,0,0,1,2.555-.852,3.3,3.3,0,0,1,2.308,1.107c.736.744,1.218,1.222,1.445,1.451a45.058,45.058,0,0,0,8.442,6.886,61.623,61.623,0,0,0,9.378,4.94,59.317,59.317,0,0,0,8.958,2.974,32.2,32.2,0,0,0,7.329,1.022,45.924,45.924,0,0,0,11.092-1.448,36.369,36.369,0,0,0,10.573-4.426,25.485,25.485,0,0,0,7.838-7.57,18.836,18.836,0,0,0,3.08-10.718,13.3,13.3,0,0,0-2.9-8.766,25.437,25.437,0,0,0-7.683-6.037,55.692,55.692,0,0,0-11-4.34q-6.221-1.788-12.868-3.489-21.159-5.444-31.558-13.015a24.042,24.042,0,0,1-10.4-20.507,32.928,32.928,0,0,1,3.067-14.292,31.6,31.6,0,0,1,8.866-11.144,41.846,41.846,0,0,1,13.9-7.233,59.79,59.79,0,0,1,17.991-2.552,52.892,52.892,0,0,1,20.821,4.507,57.958,57.958,0,0,1,17.9,11.655c.68.8,1.389,1.615,2.124,2.47a3.683,3.683,0,0,1,1.113,2.3,3.883,3.883,0,0,1-1.363,2.722l-5.116,4.933a3.325,3.325,0,0,1-2.216,1.189A4.7,4.7,0,0,1,494.343,417.463Z" transform="translate(255.689 0)"/>
    <path id="路径_348" data-name="路径 348" d="M536.252,417.463q-2.044-1.867-5.122-4.252a50.744,50.744,0,0,0-6.991-4.507,47.244,47.244,0,0,0-8.613-3.577,34.421,34.421,0,0,0-10.15-1.445,38.254,38.254,0,0,0-12.366,1.785,25.383,25.383,0,0,0-8.524,4.681,18.7,18.7,0,0,0-4.945,6.552,18.036,18.036,0,0,0-1.622,7.4,11.456,11.456,0,0,0,2.646,7.492,22.325,22.325,0,0,0,6.987,5.526,57.262,57.262,0,0,0,9.808,4q5.452,1.705,10.911,3.237,7.689,2.044,15.614,4.507a67.267,67.267,0,0,1,14.494,6.385,35.476,35.476,0,0,1,10.75,9.693q4.172,5.788,4.173,14.807a35.618,35.618,0,0,1-3.75,16.5A37.644,37.644,0,0,1,539.4,508.667,45.813,45.813,0,0,1,524.31,516.5a62.481,62.481,0,0,1-18.762,2.722,61.566,61.566,0,0,1-25.326-5.359A51.551,51.551,0,0,1,460,497.778a5.781,5.781,0,0,1-1.363-3.063,3.424,3.424,0,0,1,1.533-2.722l5.467-4.6a4.317,4.317,0,0,1,2.555-.852,3.276,3.276,0,0,1,2.3,1.107c.745.744,1.221,1.222,1.455,1.451a44.77,44.77,0,0,0,8.445,6.886,61.777,61.777,0,0,0,9.378,4.94,59.248,59.248,0,0,0,8.951,2.974,32.225,32.225,0,0,0,7.332,1.022,45.918,45.918,0,0,0,11.092-1.448,36.4,36.4,0,0,0,10.573-4.426,25.561,25.561,0,0,0,7.851-7.57,18.852,18.852,0,0,0,3.067-10.718,13.28,13.28,0,0,0-2.9-8.766,25.479,25.479,0,0,0-7.683-6.037,55.941,55.941,0,0,0-11-4.34q-6.221-1.788-12.878-3.489-21.145-5.444-31.548-13.015a24.054,24.054,0,0,1-10.412-20.507,32.935,32.935,0,0,1,3.08-14.292,31.6,31.6,0,0,1,8.866-11.144,41.914,41.914,0,0,1,13.9-7.233,59.73,59.73,0,0,1,17.991-2.552,52.833,52.833,0,0,1,20.811,4.507,57.835,57.835,0,0,1,17.909,11.655c.683.8,1.392,1.615,2.137,2.47a3.722,3.722,0,0,1,1.107,2.3,3.92,3.92,0,0,1-1.369,2.722l-5.113,4.933a3.319,3.319,0,0,1-2.216,1.189A4.676,4.676,0,0,1,536.252,417.463Z" transform="translate(350.873 0)"/>
    <path id="路径_349" data-name="路径 349" d="M341.6,423.985v14.832h77.683a3.362,3.362,0,0,0,2.8-1.189,4.284,4.284,0,0,0,.943-2.729v-6.994a3.712,3.712,0,0,0-1.107-2.985,4.018,4.018,0,0,0-2.653-.936H341.6Z" transform="translate(85.028 78.694)"/>
    <path id="路径_350" data-name="路径 350" d="M341.6,414.19v14.835h50.114a3.374,3.374,0,0,0,2.8-1.189,4.291,4.291,0,0,0,.942-2.729v-7a3.7,3.7,0,0,0-1.107-2.982,4.022,4.022,0,0,0-2.653-.939H341.6Z" transform="translate(85.05 56.417)"/>
    <path id="路径_351" data-name="路径 351" d="M388.254,423.985v14.832h77.679a3.354,3.354,0,0,0,2.8-1.189,4.266,4.266,0,0,0,.942-2.729v-6.994a3.711,3.711,0,0,0-1.1-2.985,4.027,4.027,0,0,0-2.656-.936H388.254Z" transform="translate(191.01 78.694)"/>
    <path id="路径_352" data-name="路径 352" d="M388.254,389.947v14.835h77.679a3.363,3.363,0,0,0,2.8-1.189,4.273,4.273,0,0,0,.942-2.729v-7a3.7,3.7,0,0,0-1.1-2.981,4.03,4.03,0,0,0-2.656-.939H388.254Z" transform="translate(191.01 1.274)"/>
    <path id="路径_353" data-name="路径 353" d="M388.254,406.959v14.835h50.114a3.367,3.367,0,0,0,2.8-1.189,4.284,4.284,0,0,0,.943-2.728v-6.994A3.7,3.7,0,0,0,441,407.9a4.021,4.021,0,0,0-2.653-.939h-50.1Z" transform="translate(191.059 39.968)"/>
    <path id="路径_354" data-name="路径 354" d="M454.836,399.77,498,457.193q2.256,2.995-.739,5.254l-5.717,4.308q-3,2.261-5.254-.739l-42.335-56.507c-1.5-2-1.189-3.425.739-5.254l4.886-5.224C451.707,396.969,453.329,397.773,454.836,399.77Z" transform="translate(315.057 19.122)"/>
  </g>
</svg>
