<svg xmlns="http://www.w3.org/2000/svg" width="263.509" height="374" viewBox="0 0 263.509 374">
  <g id="_2-2-分析整理" data-name="2-2-分析整理" transform="translate(0)">
    <circle id="椭圆_79" data-name="椭圆 79" cx="90" cy="90" r="90" transform="translate(72 194)" fill="#ffaa01"/>
    <path id="路径_394" data-name="路径 394" d="M520.577,256.269V531.875H571.6a102.243,102.243,0,0,1,204.487,0" transform="translate(-513.577 -247.422)" fill="none" stroke="#ffaa01" stroke-miterlimit="10" stroke-width="2"/>
    <circle id="椭圆_80" data-name="椭圆 80" cx="7" cy="7" r="7" transform="translate(0)" fill="#ffaa01"/>
    <g id="分析整理" transform="translate(126 244)">
      <path id="路径_399" data-name="路径 399" d="M171.429,144H114.286a7.619,7.619,0,0,1-7.619-7.619V71.619A7.619,7.619,0,0,1,114.286,64h57.143a7.619,7.619,0,0,1,7.619,7.619v64.762A7.619,7.619,0,0,1,171.429,144Zm1.9-70.476a3.81,3.81,0,0,0-3.81-3.81H116.19a3.81,3.81,0,0,0-3.81,3.81v60.952a3.81,3.81,0,0,0,3.81,3.81h53.333a3.81,3.81,0,0,0,3.81-3.81V73.524Zm-8.571,57.143h-40a2.857,2.857,0,0,1,0-5.714h40a2.857,2.857,0,0,1,0,5.714Zm0-13.333H140a2.857,2.857,0,1,1,0-5.714h24.762a2.857,2.857,0,0,1,0,5.714Zm0-13.333H151.429a2.857,2.857,0,0,1,0-5.714h13.333a2.857,2.857,0,0,1,0,5.714Z" transform="translate(-106.667 -64)" fill="#fff"/>
      <path id="路径_400" data-name="路径 400" d="M271.668,219.2l-6.756,6.756a8.285,8.285,0,0,1-11.255-.143l-6.758-6.758a7.645,7.645,0,0,1,10.812-10.812l1.646,1.646,1.5-1.5A7.645,7.645,0,1,1,271.668,219.2Zm-3.379-7.433a2.867,2.867,0,0,0-4.054,0l-4.879,4.879-5.025-5.025a2.867,2.867,0,0,0-4.054,4.056l6.756,6.756a2.8,2.8,0,0,0,1.269.692,2.844,2.844,0,0,0,3.23-.549l6.756-6.756a2.867,2.867,0,0,0-.008-4.054Z" transform="translate(-232.366 -193.34)" fill="#ff5e6b"/>
    </g>
  </g>
</svg>
