<svg id="_2-2-方案制定" data-name="2-2-方案制定" xmlns="http://www.w3.org/2000/svg" width="263.509" height="374" viewBox="0 0 263.509 374">
  <circle id="椭圆_79" data-name="椭圆 79" cx="90" cy="90" r="90" transform="translate(72)" fill="#65d8d6"/>
  <path id="路径_394" data-name="路径 394" d="M520.577,511.875V236.269H571.6a102.243,102.243,0,0,0,204.487,0" transform="translate(-513.577 -146.722)" fill="none" stroke="#65d8d6" stroke-miterlimit="10" stroke-width="2"/>
  <circle id="椭圆_80" data-name="椭圆 80" cx="7" cy="7" r="7" transform="translate(0 360)" fill="#65d8d6"/>
  <g id="方案制定" transform="translate(122 50)">
    <path id="路径_401" data-name="路径 401" d="M157.333,165.334h-62v-.1a10.966,10.966,0,0,1-10-10.9V120.668a7.334,7.334,0,0,1,7.334-7.334h8.666v-20a8,8,0,0,1,8-8h48a8,8,0,0,1,8,8v64a8,8,0,0,1-8,8Zm-56-46h-7.5a2.5,2.5,0,0,0-2.5,2.5v30.5a5,5,0,0,0,10,0Zm58-24a4,4,0,0,0-4-4h-44a4,4,0,0,0-4,4v59a10.892,10.892,0,0,1-1.254,5h49.254a4,4,0,0,0,4-4v-60Zm-9,56h-34a3,3,0,0,1,0-6h34a3,3,0,0,1,0,6Zm0-14h-24a3,3,0,0,1,0-6h24a3,3,0,0,1,0,6Zm0-14h-6a3,3,0,1,1,0-6h6a3,3,0,1,1,0,6Z" transform="translate(-85.333 -85.334)" fill="#fff"/>
    <path id="路径_402" data-name="路径 402" d="M424.423,227.4H419.4v5.024a3.014,3.014,0,1,1-6.028,0V227.4h-5.024a3.014,3.014,0,0,1,0-6.028h5.024v-5.024a3.014,3.014,0,0,1,6.028,0v5.024h5.024a3.014,3.014,0,0,1,0,6.028Z" transform="translate(-375.387 -201.277)" fill="#ffaa01"/>
  </g>
</svg>
