<svg id="_2-2-出国咨询" data-name="2-2-出国咨询" xmlns="http://www.w3.org/2000/svg" width="263.509" height="374" viewBox="0 0 263.509 374">
  <circle id="椭圆_79" data-name="椭圆 79" cx="90" cy="90" r="90" transform="translate(72 194)" fill="#508cff"/>
  <path id="路径_394" data-name="路径 394" d="M520.577,256.269V531.875H571.6a102.243,102.243,0,0,1,204.487,0" transform="translate(-513.577 -247.422)" fill="none" stroke="#508cff" stroke-miterlimit="10" stroke-width="2"/>
  <circle id="椭圆_80" data-name="椭圆 80" cx="7" cy="7" r="7" fill="#508cff"/>
  <g id="就医咨询" transform="translate(123 240)">
    <path id="路径_397" data-name="路径 397" d="M277.275,88.4h-6.064a21.034,21.034,0,0,0-39.185,0h-6.064a26.818,26.818,0,0,1,17.311-17.775,15.3,15.3,0,1,1,16.69,0A26.818,26.818,0,0,1,277.275,88.4Zm-16.089-30.58a9.568,9.568,0,1,0-9.568,9.556A9.562,9.562,0,0,0,261.186,57.823Z" transform="translate(-213.363 -42.52)" fill="#ffaa01"/>
    <path id="路径_398" data-name="路径 398" d="M158.974,560.4h-2.869V589.07a7.648,7.648,0,0,1-7.651,7.645H98.722a7.648,7.648,0,0,1-7.651-7.645V560.4H88.2a2.867,2.867,0,1,1,0-5.734h70.772a2.867,2.867,0,1,1,0,5.734Zm-8.607,0H96.81v26.758a3.824,3.824,0,0,0,3.826,3.823h45.906a3.824,3.824,0,0,0,3.826-3.823V560.4Zm-19.128,18.157h-4.782v4.778a2.869,2.869,0,0,1-5.738,0v-4.778h-4.782a2.867,2.867,0,1,1,0-5.734h4.782v-4.778a2.869,2.869,0,0,1,5.738,0v4.778h4.782a2.867,2.867,0,1,1,0,5.734Z" transform="translate(-85.333 -508.715)" fill="#fff"/>
  </g>
</svg>
