<svg id="_2-2-翻译审核" data-name="2-2-翻译审核" xmlns="http://www.w3.org/2000/svg" width="263.509" height="374" viewBox="0 0 263.509 374">
  <circle id="椭圆_79" data-name="椭圆 79" cx="90" cy="90" r="90" transform="translate(72)" fill="#ff5e6b"/>
  <path id="路径_394" data-name="路径 394" d="M520.577,511.875V236.269H571.6a102.243,102.243,0,0,0,204.487,0" transform="translate(-513.577 -146.722)" fill="none" stroke="#ff5e6b" stroke-miterlimit="10" stroke-width="2"/>
  <circle id="椭圆_80" data-name="椭圆 80" cx="7" cy="7" r="7" transform="translate(0 360)" fill="#ff5e6b"/>
  <g id="翻译审核" transform="translate(127 50)">
    <path id="路径_395" data-name="路径 395" d="M188.952,144H139.429A11.429,11.429,0,0,1,128,132.571V75.429A11.429,11.429,0,0,1,139.429,64H151.81a2.857,2.857,0,0,1,0,5.714H141.333a7.619,7.619,0,0,0-7.619,7.619v41.585a11.318,11.318,0,0,1,5.714-1.585h51.429V73.524A3.5,3.5,0,0,0,188,69.714,2.857,2.857,0,1,1,188,64h.952a7.619,7.619,0,0,1,7.619,7.619v64.762A7.619,7.619,0,0,1,188.952,144Zm1.9-17.143a3.81,3.81,0,0,0-3.81-3.81H141.333a7.619,7.619,0,1,0,0,15.238h45.714a3.81,3.81,0,0,0,3.809-3.81v-7.619Z" transform="translate(-128 -64)" fill="#fff"/>
    <path id="路径_396" data-name="路径 396" d="M489.461,96.551a2.85,2.85,0,0,1-2.068-.889.028.028,0,0,1-.025-.017l-6.579-6.577-6.462,6.464a2.867,2.867,0,0,1-4.994-1.911V66.867A2.867,2.867,0,0,1,472.2,64h17.2a2.991,2.991,0,0,1,2.926,2.926V93.684a2.867,2.867,0,0,1-2.867,2.867ZM478.282,83.468a4.619,4.619,0,0,1,5.03.013l3.282,3.282V69.734H475.067V86.683Z" transform="translate(-438.909 -64)" fill="#ffaa01"/>
  </g>
</svg>
