<svg id="_3-安卓下载" data-name="3-安卓下载" xmlns="http://www.w3.org/2000/svg" width="40.25" height="46" viewBox="0 0 40.25 46">
  <path id="路径_339" data-name="路径 339" d="M101.375,384a2.886,2.886,0,0,0-2.875,2.879V398.4a2.875,2.875,0,1,0,5.75,0V386.879A2.886,2.886,0,0,0,101.375,384Zm-34.5,0A2.886,2.886,0,0,0,64,386.879V398.4a2.875,2.875,0,1,0,5.75,0V386.879A2.886,2.886,0,0,0,66.875,384Zm4.313,15.836a4.315,4.315,0,0,0,4.313,4.319h0v5.759a2.875,2.875,0,1,0,5.75,0v-5.759H87v5.759a2.875,2.875,0,1,0,5.75,0v-5.759a4.315,4.315,0,0,0,4.313-4.319V384H71.188Z" transform="translate(-64 -366.793)" fill="#666"/>
  <path id="路径_340" data-name="路径 340" d="M251.565,14.4a13.044,13.044,0,0,0-5.9-9.431L247.1,2.089A1.437,1.437,0,1,0,244.534.8l-1.442,2.892-.375-.15a12.947,12.947,0,0,0-8.158,0l-.375.15L232.742.8a1.437,1.437,0,1,0-2.57,1.288l1.438,2.881a12.955,12.955,0,0,0-5.819,9.431v1.44h25.773V14.4Zm-17.236-2.879a1.44,1.44,0,0,1,0-2.879h.007a1.44,1.44,0,0,1,0,2.879Zm8.618,0a1.44,1.44,0,0,1,0-2.879h.007a1.44,1.44,0,0,1,0,2.879Z" transform="translate(-218.513 -0.005)" fill="#666"/>
</svg>
