<svg xmlns="http://www.w3.org/2000/svg" width="140" height="140" viewBox="0 0 140 140">
  <g id="_1-2-自我复制" data-name="1-2-自我复制" transform="translate(-430 -1595)">
    <g id="椭圆_69" data-name="椭圆 69" transform="translate(430 1595)" fill="none" stroke="#508cff" stroke-width="1">
      <circle cx="70" cy="70" r="70" stroke="none"/>
      <circle cx="70" cy="70" r="69.5" fill="none"/>
    </g>
    <g id="自我复制" transform="translate(466 1633.775)">
      <path id="路径_355" data-name="路径 355" d="M478.188,514.695H461.728a2.13,2.13,0,0,0-1.936,1.162l-8.133,14.135a2.469,2.469,0,0,0,0,2.324l8.133,14.135a2.13,2.13,0,0,0,1.936,1.162h16.459a2.13,2.13,0,0,0,1.936-1.162l8.133-14.135a2.469,2.469,0,0,0,0-2.324l-8.133-14.135a2.13,2.13,0,0,0-1.936-1.162Z" transform="translate(-421.999 -481.162)" fill="#508cff" opacity="0.4"/>
      <path id="路径_356" data-name="路径 356" d="M82.061,285.642H65.6a2.13,2.13,0,0,0-1.936,1.162l-8.133,14.135a2.469,2.469,0,0,0,0,2.324L63.666,317.4A2.13,2.13,0,0,0,65.6,318.56H82.061A2.13,2.13,0,0,0,84,317.4l8.133-14.135a2.469,2.469,0,0,0,0-2.324L84,286.8a2.13,2.13,0,0,0-1.936-1.162Z" transform="translate(-53.935 -268.388)" fill="#508cff" opacity="0.4"/>
      <path id="路径_357" data-name="路径 357" d="M104.475,91.467,96.391,77.4a.414.414,0,0,0-.385-.385l.385-.385,8.085-14.062a4.083,4.083,0,0,0,0-3.66L96.391,44.849a3.468,3.468,0,0,0-3.08-1.734H76.948a3.644,3.644,0,0,0-3.08,1.734L65.783,58.911a.708.708,0,0,0-.192.578H48.651a3.644,3.644,0,0,0-3.08,1.734L37.486,75.285a4.083,4.083,0,0,0,0,3.66l8.085,14.062a3.468,3.468,0,0,0,3.08,1.734h16.94c0,.193.193.385.193.578l8.085,14.062a3.468,3.468,0,0,0,3.08,1.734H93.311a3.644,3.644,0,0,0,3.08-1.734l8.085-14.062c.77-1.541.77-2.89,0-3.853Zm-36.382-31.4,8.085-14.255a1,1,0,0,1,.77-.385H93.311a1,1,0,0,1,.77.385l8.085,14.062a.86.86,0,0,1,0,.963L94.081,75.093a1,1,0,0,1-.77.385H76.948a1,1,0,0,1-.77-.385L68.093,61.03a.86.86,0,0,1,0-.963ZM48.651,91.852a1,1,0,0,1-.77-.385L39.8,77.4a.86.86,0,0,1,0-.963l8.085-14.255a1,1,0,0,1,.77-.385H65.013a1,1,0,0,1,.77.385l8.085,14.062a.86.86,0,0,1,0,.963L65.783,91.274a1,1,0,0,1-.77.385H48.651Zm53.514,1.734-8.085,14.255a1,1,0,0,1-.77.385H76.948a1,1,0,0,1-.77-.385L68.093,93.778a.86.86,0,0,1,0-.963l8.085-14.062a1,1,0,0,1,.77-.385H93.311a1,1,0,0,1,.77.385l8.085,14.062a.586.586,0,0,1,0,.771Z" transform="translate(-37.053 -43.115)" fill="#508cff"/>
    </g>
  </g>
</svg>
