<svg id="_1-1-个人中心" data-name="1-1-个人中心" xmlns="http://www.w3.org/2000/svg" xmlns:xlink="http://www.w3.org/1999/xlink" width="68" height="68" viewBox="0 0 68 68">
  <defs>
    <linearGradient id="linear-gradient" x1="0.5" x2="0.5" y2="1" gradientUnits="objectBoundingBox">
      <stop offset="0" stop-color="#fff"/>
      <stop offset="1" stop-color="#b1ccff" stop-opacity="0.6"/>
      <stop offset="1" stop-color="#508cff" stop-opacity="0.102"/>
    </linearGradient>
  </defs>
  <circle id="椭圆_53" data-name="椭圆 53" cx="34" cy="34" r="34" fill="url(#linear-gradient)"/>
  <circle id="椭圆_63" data-name="椭圆 63" cx="2" cy="2" r="2" transform="translate(52 20)" fill="#e6aa04"/>
  <circle id="椭圆_64" data-name="椭圆 64" cx="1.5" cy="1.5" r="1.5" transform="translate(11 31)" fill="#c1c2c5"/>
  <circle id="椭圆_65" data-name="椭圆 65" cx="1" cy="1" r="1" transform="translate(28 57)" fill="#ff5e6b"/>
  <g id="我的" transform="translate(14 14)">
    <rect id="矩形_131" data-name="矩形 131" width="40" height="40" fill="none"/>
    <path id="路径_207" data-name="路径 207" d="M453.217,933.347a15.09,15.09,0,0,0-5.987-3.877c.176-.132.357-.258.534-.382.294-.2.6-.416.878-.655a9.2,9.2,0,0,0,3.084-6.685,9.042,9.042,0,0,0-4.645-8.146l-.048-.025c-.225-.126-.453-.242-.684-.346-.044-.02-.088-.036-.132-.055-.21-.09-.421-.176-.635-.249-.063-.021-.126-.037-.189-.057-.2-.063-.4-.123-.6-.172-.081-.019-.164-.032-.245-.049-.186-.039-.372-.076-.559-.1-.106-.014-.211-.021-.318-.033-.164-.017-.328-.036-.493-.043-.135-.006-.271,0-.406,0s-.272,0-.407,0c-.165.007-.329.026-.493.043-.106.011-.212.018-.318.033-.187.027-.373.065-.559.1-.082.018-.164.03-.245.049-.2.048-.4.109-.6.172-.063.02-.126.037-.189.057-.214.073-.426.159-.635.249-.044.019-.088.035-.132.055-.232.1-.459.221-.685.346l-.047.025a8.928,8.928,0,0,0-.939.6,9.078,9.078,0,0,0-3.707,7.546,9.2,9.2,0,0,0,3.084,6.685c.28.238.585.45.878.655.177.124.358.25.534.382a15.09,15.09,0,0,0-5.987,3.877,14.606,14.606,0,0,0-3.2,5.6l-.01.032c-.121.395-.222.8-.308,1.2-.019.087-.041.172-.059.259-.066.338-.113.681-.155,1.025-.017.141-.041.281-.055.423-.033.353-.044.709-.052,1.065,0,.1-.014.195-.014.293a.988.988,0,0,0,0,.145c0,.018,0,.037,0,.055a.916.916,0,0,0,.065.182.812.812,0,0,0,.7.585v.03l26.842-.013h.06l0-.006h.017a.927.927,0,0,0,.911-.78A14.6,14.6,0,0,0,453.217,933.347Z" transform="translate(-422.78 -908.21)" fill="#508cff"/>
  </g>
</svg>
