<svg xmlns="http://www.w3.org/2000/svg" width="140" height="140" viewBox="0 0 140 140">
  <g id="_1-2-无限潜力" data-name="1-2-无限潜力" transform="translate(-1350 -1595)">
    <g id="椭圆_72" data-name="椭圆 72" transform="translate(1350 1595)" fill="none" stroke="#508cff" stroke-width="1">
      <circle cx="70" cy="70" r="70" stroke="none"/>
      <circle cx="70" cy="70" r="69.5" fill="none"/>
    </g>
    <g id="无限潜力" transform="translate(1348.273 1546.844)">
      <path id="路径_392" data-name="路径 392" d="M110.725,116.7l7.9,3.932a1.321,1.321,0,0,1,.771,1.376v31.653a1.477,1.477,0,0,1-.963,1.376l-7.706,2.949V116.7ZM89.149,165.654l-34.1-7.078A1.708,1.708,0,0,1,53.895,157V119.648a1.477,1.477,0,0,1,.963-1.376l34.1-11.8a1.427,1.427,0,0,1,1.926,1.376v56.229a1.416,1.416,0,0,1-1.734,1.573Z" transform="translate(-15.014 -17.845)" fill="#508cff" opacity="0.4"/>
      <path id="路径_393" data-name="路径 393" d="M104.186,101.624,75.868,87.482a2.682,2.682,0,0,0-2.119-.2L39.653,99.07a2.951,2.951,0,0,0-1.926,2.75v37.319a3.116,3.116,0,0,0,2.312,2.946l34.1,7.071h1.541l28.317-10.214a2.784,2.784,0,0,0,1.734-2.75V104.177a3.074,3.074,0,0,0-1.541-2.553ZM88.2,96.713l6.164,3.143v39.283L88.2,141.3V96.713Zm-2.7,45.568-8.091,3.143V91.214l8.283,4.125v46.943Zm-45.269-3.143.193-37.515,34.1-11.785.193.2v56.371H74.52l-34.289-7.267ZM103.03,136l-5.779,2.161V101.231l5.972,2.946L103.03,136Z" transform="translate(0 0)" fill="#508cff"/>
    </g>
  </g>
</svg>
