<svg xmlns="http://www.w3.org/2000/svg" width="37.95" height="46" viewBox="0 0 37.95 46">
  <path id="_3-iOS" data-name="3-iOS" d="M116.848,24.48a10.384,10.384,0,0,1,5.031-8.743,10.944,10.944,0,0,0-8.522-4.551c-3.628-.36-7.08,2.105-8.923,2.105s-4.68-2.052-7.69-2A11.417,11.417,0,0,0,87.1,17.052c-4.111,7.027-1.054,17.435,2.953,23.134,1.958,2.791,4.293,5.922,7.356,5.811,2.951-.118,4.068-1.883,7.636-1.883s4.569,1.881,7.693,1.825c3.176-.06,5.189-2.843,7.133-5.641a25.159,25.159,0,0,0,3.227-6.53,10.162,10.162,0,0,1-6.254-9.287ZM111.669,7.712A10.359,10.359,0,0,0,114.292,0a11.475,11.475,0,0,0-7.425,3.658,9.862,9.862,0,0,0-2.678,7.473,9.512,9.512,0,0,0,7.479-3.418Z" transform="translate(-85.153)" fill="#666"/>
</svg>
