<svg xmlns="http://www.w3.org/2000/svg" width="161" height="50" viewBox="0 0 161 50">
  <g id="_3-LOGO" data-name="3-LOGO" transform="translate(-119.423 -47.244)">
    <g id="组_41" data-name="组 41" transform="translate(176.675 71.712)">
      <path id="路径_326" data-name="路径 326" d="M378.557,287.926v-4.239a.446.446,0,0,1,.505-.5h.964a.58.58,0,0,1,.367.126.45.45,0,0,1,.161.378v5.087a.5.5,0,0,1-.069.241.7.7,0,0,1-.252.24l-.046.046a8.188,8.188,0,0,1-2.4,1.226,9.223,9.223,0,0,1-2.836.424,8.514,8.514,0,0,1-3.408-.687,8.734,8.734,0,0,1-4.649-4.64,8.754,8.754,0,0,1,0-6.805,8.82,8.82,0,0,1,4.671-4.662,8.7,8.7,0,0,1,6.553-.092q.3.115.7.3t.769.389a3.111,3.111,0,0,1,.619.447.661.661,0,0,1,.252.446.478.478,0,0,1-.069.252l-.505.825a.461.461,0,0,1-.39.275.646.646,0,0,1-.436-.183,7.757,7.757,0,0,0-1.894-.963,6.513,6.513,0,0,0-2.17-.367,6.625,6.625,0,0,0-2.743.562,6.728,6.728,0,0,0-2.146,1.5,6.981,6.981,0,0,0-1.4,2.154,6.576,6.576,0,0,0-.5,2.543,6.434,6.434,0,0,0,.54,2.623,6.8,6.8,0,0,0,3.627,3.575,6.669,6.669,0,0,0,2.605.515,6.4,6.4,0,0,0,2.136-.332A5.749,5.749,0,0,0,378.557,287.926Z" transform="translate(-366.207 -273.446)"/>
      <path id="路径_327" data-name="路径 327" d="M410.393,273.993h11.041q.505,0,.505.527v.939a.546.546,0,0,1-.138.366.486.486,0,0,1-.39.16h-9.55v5.064h7.6a.54.54,0,0,1,.356.126.5.5,0,0,1,.15.4v.939a.574.574,0,0,1-.127.366.452.452,0,0,1-.379.16h-7.6V289H421.5q.527,0,.528.549v.939a.446.446,0,0,1-.5.5H410.393q-.505,0-.506-.481V274.52Q409.887,273.993,410.393,273.993Z" transform="translate(-390.917 -273.741)"/>
      <path id="路径_328" data-name="路径 328" d="M461.181,290.993H460.1a.566.566,0,0,1-.436-.206L449.2,277.063v13.425q0,.5-.528.5h-.941a.447.447,0,0,1-.506-.5V274.52a.535.535,0,0,1,.137-.378.48.48,0,0,1,.369-.149h1.262a.506.506,0,0,1,.436.229l10.307,13.38V274.428a.462.462,0,0,1,.506-.435h.941a.591.591,0,0,1,.378.138.447.447,0,0,1,.173.366v15.992Q461.732,290.993,461.181,290.993Z" transform="translate(-412.044 -273.741)"/>
      <path id="路径_329" data-name="路径 329" d="M490.86,273.993H501.9q.505,0,.5.527v.939a.545.545,0,0,1-.138.366.486.486,0,0,1-.39.16h-9.55v5.064h7.6a.539.539,0,0,1,.356.126.5.5,0,0,1,.15.4v.939a.574.574,0,0,1-.127.366.453.453,0,0,1-.379.16h-7.6V289h9.641q.527,0,.528.549v.939a.446.446,0,0,1-.5.5H490.86q-.505,0-.506-.481V274.52Q490.354,273.993,490.86,273.993Z" transform="translate(-436.436 -273.741)"/>
      <path id="路径_330" data-name="路径 330" d="M535.289,277.2q-.276-.252-.689-.573a6.887,6.887,0,0,0-.94-.607,6.454,6.454,0,0,0-1.16-.482,4.637,4.637,0,0,0-1.366-.194,5.136,5.136,0,0,0-1.664.24,3.4,3.4,0,0,0-1.147.631,2.534,2.534,0,0,0-.667.882,2.45,2.45,0,0,0-.217,1,1.544,1.544,0,0,0,.356,1.008,3.008,3.008,0,0,0,.941.744,7.736,7.736,0,0,0,1.32.538q.734.23,1.469.436,1.032.275,2.1.607a9.048,9.048,0,0,1,1.951.86,4.767,4.767,0,0,1,1.446,1.305,3.322,3.322,0,0,1,.563,1.994,4.8,4.8,0,0,1-.505,2.222,5.085,5.085,0,0,1-1.366,1.672,6.156,6.156,0,0,1-2.031,1.054,8.414,8.414,0,0,1-2.525.366,8.275,8.275,0,0,1-3.408-.721,6.932,6.932,0,0,1-2.721-2.165.775.775,0,0,1-.184-.412.461.461,0,0,1,.206-.366l.734-.619a.589.589,0,0,1,.346-.115.441.441,0,0,1,.309.149c.1.1.164.165.2.2a6.006,6.006,0,0,0,1.136.928,8.24,8.24,0,0,0,1.262.665,7.943,7.943,0,0,0,1.206.4,4.339,4.339,0,0,0,.986.137,6.2,6.2,0,0,0,1.493-.194,4.917,4.917,0,0,0,1.423-.6,3.442,3.442,0,0,0,1.056-1.019,2.542,2.542,0,0,0,.414-1.443,1.782,1.782,0,0,0-.391-1.18,3.4,3.4,0,0,0-1.032-.813,7.514,7.514,0,0,0-1.481-.584q-.839-.241-1.733-.47a12.8,12.8,0,0,1-4.247-1.753,3.24,3.24,0,0,1-1.4-2.761,4.437,4.437,0,0,1,.413-1.924,4.26,4.26,0,0,1,1.195-1.5,5.638,5.638,0,0,1,1.871-.974,8.037,8.037,0,0,1,2.421-.343,7.112,7.112,0,0,1,2.8.607,7.789,7.789,0,0,1,2.41,1.57l.286.332a.5.5,0,0,1,.15.309.529.529,0,0,1-.184.366l-.688.664a.447.447,0,0,1-.3.16A.633.633,0,0,1,535.289,277.2Z" transform="translate(-455.951 -273.417)"/>
      <path id="路径_331" data-name="路径 331" d="M564.928,274.5v15.992a.446.446,0,0,1-.5.5h-.964a.447.447,0,0,1-.506-.5V274.5a.447.447,0,0,1,.506-.5h.964A.446.446,0,0,1,564.928,274.5Z" transform="translate(-477.552 -273.741)"/>
      <path id="路径_332" data-name="路径 332" d="M586.211,277.2q-.275-.252-.69-.573a6.816,6.816,0,0,0-.941-.607,6.366,6.366,0,0,0-1.16-.482,4.622,4.622,0,0,0-1.366-.194,5.144,5.144,0,0,0-1.664.24,3.423,3.423,0,0,0-1.147.631,2.522,2.522,0,0,0-.666.882,2.431,2.431,0,0,0-.218,1,1.544,1.544,0,0,0,.356,1.008,3.009,3.009,0,0,0,.941.744,7.734,7.734,0,0,0,1.32.538q.734.23,1.469.436,1.035.275,2.1.607a9.074,9.074,0,0,1,1.95.86,4.78,4.78,0,0,1,1.447,1.305,3.327,3.327,0,0,1,.561,1.994,4.8,4.8,0,0,1-.5,2.222,5.072,5.072,0,0,1-1.366,1.672,6.155,6.155,0,0,1-2.031,1.054,8.412,8.412,0,0,1-2.525.366,8.279,8.279,0,0,1-3.408-.721,6.94,6.94,0,0,1-2.721-2.165.774.774,0,0,1-.184-.412.459.459,0,0,1,.207-.366l.735-.619a.581.581,0,0,1,.344-.115.44.44,0,0,1,.309.149l.2.2a5.99,5.99,0,0,0,1.136.928,8.276,8.276,0,0,0,1.262.665,7.968,7.968,0,0,0,1.205.4,4.347,4.347,0,0,0,.987.137,6.2,6.2,0,0,0,1.493-.194,4.914,4.914,0,0,0,1.423-.6,3.441,3.441,0,0,0,1.057-1.019,2.54,2.54,0,0,0,.413-1.443,1.786,1.786,0,0,0-.39-1.18,3.411,3.411,0,0,0-1.034-.813,7.514,7.514,0,0,0-1.481-.584q-.837-.241-1.733-.47a12.812,12.812,0,0,1-4.246-1.753,3.24,3.24,0,0,1-1.4-2.761,4.435,4.435,0,0,1,.414-1.924,4.261,4.261,0,0,1,1.193-1.5,5.649,5.649,0,0,1,1.871-.974,8.04,8.04,0,0,1,2.422-.343,7.107,7.107,0,0,1,2.8.607,7.792,7.792,0,0,1,2.41,1.57c.092.107.187.218.287.332a.5.5,0,0,1,.149.309.529.529,0,0,1-.184.366l-.688.664a.446.446,0,0,1-.3.16A.629.629,0,0,1,586.211,277.2Z" transform="translate(-484.757 -273.417)"/>
    </g>
    <g id="icon1024" transform="translate(-5993.577 2534.106)">
      <g id="关于我们-LOGO" transform="translate(6113 -2486.823)">
        <rect id="矩形_195" data-name="矩形 195" width="50" height="50" transform="translate(0 -0.039)" fill="#fff" opacity="0"/>
        <ellipse id="椭圆_43" data-name="椭圆 43" cx="5.761" cy="5.761" rx="5.761" ry="5.761" transform="translate(26.91 0)" fill="#508cff"/>
        <path id="路径_258" data-name="路径 258" d="M530.289,398.262c7.3-1.561,8.662-4.941,19.123-9.113,11.633-4.639,17.861-2.414,19.793.49a11.774,11.774,0,0,1,1.059,9.4,25.953,25.953,0,0,1-21.958,17.181,26.3,26.3,0,0,0,9.333-3.355c6.7-3.839,10.57-9.274,8.635-12.139s-8.939-2.075-15.643,1.764-10.571,9.274-8.636,12.139c.73,1.079,2.18,1.639,4.062,1.713-.081,0-.16.009-.241.009a25.938,25.938,0,0,1-24.067-16.3C520.546,397.058,526.947,398.975,530.289,398.262Z" transform="translate(-520.834 -366.389)" fill="#c4d6ff"/>
        <path id="路径_259" data-name="路径 259" d="M523.839,389.639c1.932-2.9,8.16-5.129,19.792-.49,10.462,4.172,11.827,7.551,19.124,9.113,3.342.714,9.741-1.2,8.541,1.79a25.937,25.937,0,0,1-24.067,16.3c-.122,0-.242-.013-.365-.015,1.84-.087,3.258-.645,3.976-1.707,1.936-2.865-1.93-8.3-8.635-12.139s-13.708-4.629-15.644-1.764,1.93,8.3,8.636,12.139a27.306,27.306,0,0,0,8.47,3.226,25.964,25.964,0,0,1-20.887-17.052A11.769,11.769,0,0,1,523.839,389.639Z" transform="translate(-522.249 -366.389)" fill="#508cff" opacity="0.8"/>
      </g>
    </g>
  </g>
</svg>
